<svg width="153" height="53" viewBox="0 0 153 53" fill="none" xmlns="http://www.w3.org/2000/svg">
<g style="mix-blend-mode:luminosity">
<path d="M23.975 44.5252C22.7175 44.5252 21.6917 43.4993 21.6917 42.2418C21.6917 40.9843 22.7175 39.9585 23.975 39.9585C25.2325 39.9585 26.2583 40.9843 26.2583 42.2418C26.2583 43.4993 25.2407 44.5252 23.975 44.5252ZM23.975 40.7858C23.1725 40.7858 22.5189 41.4393 22.5189 42.2418C22.5189 43.0443 23.1725 43.6979 23.975 43.6979C24.7775 43.6979 25.431 43.0443 25.431 42.2418C25.431 41.4393 24.7775 40.7858 23.975 40.7858Z" fill="#F5E9D6" fill-opacity="0.8"/>
<path d="M29.6829 42.2415C28.4254 42.2415 27.3995 41.2156 27.3995 39.9581C27.3995 38.7007 28.4254 37.6748 29.6829 37.6748C30.9404 37.6748 31.9662 38.7007 31.9662 39.9581C31.9662 41.2156 30.9486 42.2415 29.6829 42.2415ZM29.6829 38.5021C28.8804 38.5021 28.2268 39.1557 28.2268 39.9581C28.2268 40.7606 28.8804 41.4142 29.6829 41.4142C30.4853 41.4142 31.1389 40.7606 31.1389 39.9581C31.1389 39.1557 30.4853 38.5021 29.6829 38.5021Z" fill="#F5E9D6" fill-opacity="0.8"/>
<path d="M17.1244 42.2415C15.8669 42.2415 14.8411 41.2156 14.8411 39.9581C14.8411 38.7007 15.8669 37.6748 17.1244 37.6748C18.3819 37.6748 19.4077 38.7007 19.4077 39.9581C19.4077 41.2156 18.3819 42.2415 17.1244 42.2415ZM17.1244 38.5021C16.3219 38.5021 15.6684 39.1557 15.6684 39.9581C15.6684 40.7606 16.3219 41.4142 17.1244 41.4142C17.9269 41.4142 18.5804 40.7606 18.5804 39.9581C18.5722 39.1557 17.9269 38.5021 17.1244 38.5021Z" fill="#F5E9D6" fill-opacity="0.8"/>
<path d="M33.9429 27.0437C35.9173 27.1445 37.8415 27.5559 39.6569 28.2528C39.5482 28.7986 39.4227 29.336 39.2637 29.8566C34.5286 27.9757 29.0739 28.3032 24.5562 30.923V33.5009H30.9646V39.1771H29.35V35.1214H24.5562V41.1H22.9416V35.1214H18.1478V38.8076H16.5332V33.5009H22.9416V29.3108C21.3102 30.0162 19.5701 30.3688 17.8132 30.3688C16.5416 30.3688 15.2616 30.1841 14.0066 29.7979C11.7311 29.1093 9.73159 27.8498 8.16714 26.1368C8.11695 26.0781 8.05838 26.0277 8.00819 25.9689C7.99146 25.7086 7.99146 25.4399 7.99146 25.1712C7.99146 24.7178 8.00819 24.2644 8.05002 23.8193C8.08348 23.8193 8.11695 23.8109 8.15041 23.8109C8.23407 23.8109 8.3261 23.8193 8.40139 23.8361C8.67747 24.2392 8.97865 24.6086 9.30492 24.9613C10.7272 26.5315 12.5426 27.6483 14.5086 28.2361C12.4924 25.9437 11.8649 22.585 13.1868 19.6125L14.6592 20.2759C13.7975 22.2071 13.9648 24.3399 14.9269 26.0529C15.1193 25.9185 15.2783 25.7338 15.387 25.5155C15.5627 25.1712 15.5878 24.7766 15.4707 24.4071L17.0017 23.8949C17.261 24.6758 17.2025 25.5071 16.8344 26.246C16.6085 26.691 16.2906 27.0689 15.8974 27.3544C16.4244 27.9086 17.0686 28.3704 17.7965 28.7147C19.1936 28.7147 20.6075 28.4628 21.9628 27.9254C21.0927 27.1697 20.1139 26.5567 19.0597 26.1033L19.6956 24.6086C20.8668 25.1124 21.9544 25.7926 22.9249 26.6155V22.056C22.7157 21.8965 22.4982 21.7369 22.2807 21.5774C20.825 22.1316 19.2856 22.4087 17.7128 22.4087V20.7881C18.6665 20.7881 19.5952 20.6705 20.5071 20.4438C18.4574 19.2599 16.2571 18.4118 13.9481 17.9248C12.7266 19.8057 10.677 20.914 8.53525 20.9896C8.68584 20.4186 8.86989 19.856 9.08741 19.3102C10.2587 19.1255 11.3546 18.5377 12.1577 17.6225C11.4299 17.5301 10.7021 17.4713 9.95748 17.4461C10.2587 16.9004 10.5849 16.3714 10.9447 15.8675C12.894 16.0019 14.8014 16.363 16.6252 16.9507C16.4161 15.179 15.3703 13.6172 13.8812 12.7271C14.3246 12.3661 14.7931 12.0218 15.2783 11.7027C16.1567 12.3493 16.8846 13.1806 17.4033 14.1378C18.8506 13.147 19.6956 11.4676 19.637 9.71268C20.1641 9.56154 20.6911 9.44398 21.2349 9.35162C21.4357 11.8875 20.1808 14.3477 18.0223 15.6744C18.1897 16.279 18.2817 16.9087 18.2901 17.5553C19.9131 18.2103 21.4775 19.0499 22.9416 20.066V9.16689C23.2846 9.1417 23.636 9.1333 23.979 9.1333C24.1714 9.1333 24.3638 9.1333 24.5562 9.1417V16.892C25.9617 14.6164 26.9155 12.1226 27.3923 9.50276C27.9277 9.62031 28.4464 9.76306 28.9568 9.931C28.848 10.5188 28.7142 11.1066 28.5552 11.6859C28.9568 11.5936 29.3249 11.4088 29.6512 11.1401C29.8938 10.9386 30.1029 10.6951 30.2535 10.418C30.7555 10.6363 31.2407 10.8714 31.7092 11.1317C31.4582 11.602 31.1068 12.0302 30.6885 12.3829C29.9356 13.0126 29.007 13.3569 28.0365 13.3653C27.225 15.6324 26.0621 17.7736 24.5562 19.7301V23.7354C25.7944 23.1896 26.9657 22.5094 28.0616 21.7033C27.568 20.3011 27.317 18.84 27.317 17.3454H28.9317C28.9317 18.4622 29.0906 19.5537 29.4002 20.6033C31.7092 18.5209 33.4242 15.9095 34.4114 13.021C34.8632 13.4073 35.2815 13.8187 35.6831 14.2554C34.9803 16.0691 34.0182 17.7736 32.8135 19.3102C33.2904 19.369 33.7756 19.3858 34.2608 19.3522L34.3696 20.9728C34.1605 20.9896 33.9429 20.998 33.7338 20.998C33.0059 20.998 32.2865 20.914 31.5837 20.7461C31.1319 21.2163 30.6634 21.6697 30.1698 22.098C28.4966 23.5422 26.6059 24.6926 24.5562 25.4987V29.0757C25.2255 28.7315 25.9199 28.4208 26.6226 28.1605C26.8234 27.2284 27.317 26.3971 28.0616 25.7758C28.9317 25.0453 30.036 24.701 31.1654 24.8102L31.0148 26.4223C30.3121 26.3552 29.6344 26.5735 29.0906 27.0185C28.9066 27.1697 28.7393 27.3544 28.6054 27.5475C29.3751 27.3544 30.1531 27.22 30.9395 27.1277C32.9474 25.9437 34.6791 24.3903 36.0763 22.5934C35.0724 20.2927 35.2982 17.5889 36.7121 15.4897C37.0718 15.9683 37.4065 16.4637 37.716 16.9843C37.0886 18.2103 36.9212 19.6125 37.2308 20.9392C37.4399 20.6033 37.6324 20.2591 37.8164 19.9148C38.0256 19.5202 38.218 19.1171 38.402 18.7141C38.4606 18.6805 38.5192 18.6553 38.5777 18.6385C38.8622 19.2767 39.1048 19.9316 39.3056 20.6117C39.2554 20.7041 39.2135 20.7881 39.1634 20.8804C39.063 21.0736 38.9542 21.2583 38.8454 21.443C38.3769 22.2491 37.8499 23.0132 37.2726 23.7354C38.1594 23.7102 39.0295 23.517 39.8326 23.156C39.8996 23.7102 39.9414 24.2812 39.9581 24.8521C39.0462 25.1796 38.0758 25.3559 37.0969 25.3559C36.7037 25.3559 36.3105 25.3308 35.9173 25.272C35.2899 25.9101 34.629 26.4979 33.9429 27.0437Z" fill="#F5E9D6" fill-opacity="0.8"/>
<path d="M23.975 10.275C24.6056 10.275 25.1167 9.76389 25.1167 9.13337C25.1167 8.50284 24.6056 7.9917 23.975 7.9917C23.3445 7.9917 22.8334 8.50284 22.8334 9.13337C22.8334 9.76389 23.3445 10.275 23.975 10.275Z" fill="#F5E9D6" fill-opacity="0.8"/>
<path d="M20.5501 10.275C21.1806 10.275 21.6918 9.76389 21.6918 9.13337C21.6918 8.50284 21.1806 7.9917 20.5501 7.9917C19.9196 7.9917 19.4084 8.50284 19.4084 9.13337C19.4084 9.76389 19.9196 10.275 20.5501 10.275Z" fill="#F5E9D6" fill-opacity="0.8"/>
<path d="M14.8411 13.6998C15.4717 13.6998 15.9828 13.1887 15.9828 12.5582C15.9828 11.9276 15.4717 11.4165 14.8411 11.4165C14.2106 11.4165 13.6995 11.9276 13.6995 12.5582C13.6995 13.1887 14.2106 13.6998 14.8411 13.6998Z" fill="#F5E9D6" fill-opacity="0.8"/>
<path d="M10.2747 18.2667C10.9052 18.2667 11.4164 17.7556 11.4164 17.1251C11.4164 16.4945 10.9052 15.9834 10.2747 15.9834C9.6442 15.9834 9.13306 16.4945 9.13306 17.1251C9.13306 17.7556 9.6442 18.2667 10.2747 18.2667Z" fill="#F5E9D6" fill-opacity="0.8"/>
<path d="M9.13312 21.6918C9.76365 21.6918 10.2748 21.1806 10.2748 20.5501C10.2748 19.9196 9.76365 19.4084 9.13312 19.4084C8.5026 19.4084 7.99146 19.9196 7.99146 20.5501C7.99146 21.1806 8.5026 21.6918 9.13312 21.6918Z" fill="#F5E9D6" fill-opacity="0.8"/>
<path d="M10.2748 25.1168C10.2748 25.7443 9.77578 26.2433 9.1558 26.2584C9.14824 26.2584 9.14068 26.2584 9.13312 26.2584C8.50558 26.2584 7.99146 25.7519 7.99146 25.1168C7.99146 24.5195 8.45266 24.0356 9.03483 23.9827C9.06508 23.9827 9.09532 23.9751 9.13312 23.9751C9.21629 23.9751 9.29946 23.9827 9.38262 24.0053C9.89675 24.1263 10.2748 24.5724 10.2748 25.1168Z" fill="#F5E9D6" fill-opacity="0.8"/>
<path d="M28.5412 10.275C29.1717 10.275 29.6829 9.76389 29.6829 9.13337C29.6829 8.50284 29.1717 7.9917 28.5412 7.9917C27.9107 7.9917 27.3995 8.50284 27.3995 9.13337C27.3995 9.76389 27.9107 10.275 28.5412 10.275Z" fill="#F5E9D6" fill-opacity="0.8"/>
<path d="M30.8245 11.4166C31.4551 11.4166 31.9662 10.9055 31.9662 10.275C31.9662 9.64444 31.4551 9.1333 30.8245 9.1333C30.194 9.1333 29.6829 9.64444 29.6829 10.275C29.6829 10.9055 30.194 11.4166 30.8245 11.4166Z" fill="#F5E9D6" fill-opacity="0.8"/>
<path d="M35.3917 14.8419C36.0222 14.8419 36.5333 14.3308 36.5333 13.7003C36.5333 13.0697 36.0222 12.5586 35.3917 12.5586C34.7611 12.5586 34.25 13.0697 34.25 13.7003C34.25 14.3308 34.7611 14.8419 35.3917 14.8419Z" fill="#F5E9D6" fill-opacity="0.8"/>
<path d="M37.6751 17.1251C38.3056 17.1251 38.8168 16.614 38.8168 15.9835C38.8168 15.3529 38.3056 14.8418 37.6751 14.8418C37.0446 14.8418 36.5334 15.3529 36.5334 15.9835C36.5334 16.614 37.0446 17.1251 37.6751 17.1251Z" fill="#F5E9D6" fill-opacity="0.8"/>
<path d="M39.9583 25.1168C40.5888 25.1168 41.1 24.6057 41.1 23.9752C41.1 23.3446 40.5888 22.8335 39.9583 22.8335C39.3278 22.8335 38.8167 23.3446 38.8167 23.9752C38.8167 24.6057 39.3278 25.1168 39.9583 25.1168Z" fill="#F5E9D6" fill-opacity="0.8"/>
<path d="M39.9583 30.8249C40.5888 30.8249 41.1 30.0582 41.1 29.1124C41.1 28.1666 40.5888 27.3999 39.9583 27.3999C39.3278 27.3999 38.8167 28.1666 38.8167 29.1124C38.8167 30.0582 39.3278 30.8249 39.9583 30.8249Z" fill="#F5E9D6" fill-opacity="0.8"/>
<path d="M19.4085 26.2584C20.039 26.2584 20.5502 25.7473 20.5502 25.1168C20.5502 24.4862 20.039 23.9751 19.4085 23.9751C18.778 23.9751 18.2668 24.4862 18.2668 25.1168C18.2668 25.7473 18.778 26.2584 19.4085 26.2584Z" fill="#F5E9D6" fill-opacity="0.8"/>
<path d="M28.5412 18.2667C29.1717 18.2667 29.6829 17.7556 29.6829 17.1251C29.6829 16.4945 29.1717 15.9834 28.5412 15.9834C27.9107 15.9834 27.3995 16.4945 27.3995 17.1251C27.3995 17.7556 27.9107 18.2667 28.5412 18.2667Z" fill="#F5E9D6" fill-opacity="0.8"/>
<path d="M39.9584 19.4121C39.9584 19.9734 39.5474 20.4437 39.0146 20.5348C38.9537 20.5499 38.8852 20.5499 38.8167 20.5499C38.2459 20.5499 37.774 20.1327 37.6903 19.5941C37.675 19.5334 37.675 19.4727 37.675 19.4121C37.675 18.9797 37.9186 18.608 38.2687 18.4107C38.322 18.3804 38.3829 18.3576 38.4438 18.3349C38.5579 18.2894 38.6873 18.2666 38.8243 18.2666C39.4408 18.2742 39.9584 18.7824 39.9584 19.4121Z" fill="#F5E9D6" fill-opacity="0.8"/>
<path d="M51.136 38.9776L37.8688 51.1643C37.5579 51.4537 37.0569 51.4454 36.7546 51.1395C36.4523 50.8419 36.4609 50.3623 36.7805 50.073L50.0477 37.8863C50.3586 37.5969 50.8596 37.6052 51.1619 37.9111C51.4556 38.2087 51.4469 38.6883 51.136 38.9776Z" fill="#F5E9D6" fill-opacity="0.8"/>
<path d="M51.1387 42.3207L41.2429 51.1773C40.9437 51.4485 40.4618 51.4408 40.171 51.1541C39.8802 50.8752 39.8885 50.4257 40.196 50.1545L50.0918 41.2978C50.3909 41.0266 50.8728 41.0344 51.1636 41.3211C51.4544 41.6 51.4461 42.0495 51.1387 42.3207Z" fill="#F5E9D6" fill-opacity="0.8"/>
<path d="M52.2773 44.7539L44.6833 52.2951C44.3805 52.5996 43.8928 52.5909 43.5984 52.269C43.3041 51.9559 43.3125 51.4514 43.6236 51.147L51.2176 43.6058C51.5204 43.3013 52.0082 43.31 52.3025 43.6319C52.5968 43.945 52.5884 44.4495 52.2773 44.7539Z" fill="#F5E9D6" fill-opacity="0.8"/>
<path d="M36.2034 48.9886C23.7342 54.8301 8.76949 49.6031 2.62429 37.068C-3.5209 24.5412 1.49442 9.22059 13.8255 2.83837C26.1646 -3.55204 41.2756 1.22438 47.8517 13.3907C48.0711 13.7922 47.9086 14.292 47.5103 14.4968C47.1282 14.6934 46.6567 14.5459 46.4535 14.1609C40.284 2.75644 26.1159 -1.70865 14.557 4.27212C2.99821 10.2529 -1.7001 24.6149 4.06305 36.3553C9.82621 48.0956 23.848 52.9949 35.5369 47.5303C35.927 47.3501 36.3904 47.5057 36.5855 47.899C36.7805 48.3004 36.618 48.8002 36.2034 48.9886Z" fill="#F5E9D6" fill-opacity="0.8"/>
<path d="M47.9493 18.2667C48.5798 18.2667 49.091 17.7556 49.091 17.1251C49.091 16.4945 48.5798 15.9834 47.9493 15.9834C47.3188 15.9834 46.8076 16.4945 46.8076 17.1251C46.8076 17.7556 47.3188 18.2667 47.9493 18.2667Z" fill="#F5E9D6" fill-opacity="0.8"/>
<path d="M54.7988 14.8413H59.1556C60.1784 14.8413 61.0685 15.0299 61.8258 15.4153C62.5832 15.8007 63.1765 16.3337 63.5982 17.0225C64.0198 17.7112 64.2306 18.523 64.2306 19.4414C64.2306 20.532 63.9495 21.4504 63.3795 22.1965C62.8174 22.9427 62.0444 23.4757 61.0763 23.7873L65.0738 29.683H62.185L58.6168 24.0661H57.1646V29.683H54.7988V14.8413ZM59.0619 17.0061H57.188V21.9833H59.0619C59.8817 21.9833 60.5453 21.7702 61.0372 21.3356C61.5369 20.901 61.7868 20.2942 61.7868 19.4988C61.7868 18.7116 61.5369 18.0966 61.0372 17.6538C60.5375 17.2193 59.8817 17.0061 59.0619 17.0061Z" fill="#F5E9D6" fill-opacity="0.8"/>
<path d="M66.2158 22.2424C66.2158 21.1851 66.4113 20.1988 66.8106 19.2993C67.21 18.3919 67.7623 17.6108 68.4931 16.9401C69.2154 16.2773 70.0651 15.7566 71.0338 15.3936C72.0024 15.0228 73.0561 14.8413 74.1947 14.8413C75.3504 14.8413 76.4125 15.0228 77.3812 15.3936C78.3499 15.7566 79.1911 16.2773 79.9219 16.9401C80.6442 17.6029 81.205 18.3919 81.6043 19.2993C82.0037 20.2067 82.1992 21.1851 82.1992 22.2424C82.1992 23.2997 82.0037 24.286 81.6043 25.1855C81.205 26.0929 80.6527 26.8819 79.9389 27.5526C79.2251 28.2233 78.3754 28.7519 77.3982 29.1228C76.421 29.4936 75.3589 29.683 74.2032 29.683C73.0476 29.683 71.9855 29.4936 71.0168 29.1228C70.0481 28.7519 69.2069 28.2233 68.4931 27.5526C67.7793 26.8819 67.2185 26.0929 66.8276 25.1855C66.4113 24.286 66.2158 23.2997 66.2158 22.2424ZM68.9604 22.2424C68.9604 23.2208 69.1814 24.0966 69.6317 24.862C70.0821 25.6274 70.6939 26.2349 71.4841 26.6689C72.2744 27.1028 73.1751 27.3238 74.1862 27.3238C75.2144 27.3238 76.1151 27.1028 76.8969 26.6689C77.6786 26.2349 78.2989 25.6352 78.7408 24.862C79.1911 24.0966 79.4121 23.2208 79.4121 22.2424C79.4121 21.264 79.1911 20.3882 78.7493 19.6228C78.3074 18.8575 77.6956 18.2499 76.9139 17.816C76.1321 17.382 75.2229 17.1611 74.1778 17.1611C73.1666 17.1611 72.2659 17.382 71.4756 17.816C70.6854 18.2499 70.0651 18.8496 69.6232 19.6228C69.1814 20.3882 68.9604 21.264 68.9604 22.2424Z" fill="#F5E9D6" fill-opacity="0.8"/>
<path d="M94.7574 25.3945C94.7574 26.3866 94.5231 27.1902 94.0629 27.8216C93.6027 28.453 92.9585 28.9204 92.1385 29.2238C91.3185 29.5272 90.373 29.683 89.302 29.683H84.4824V14.8413H89.0426C90.4734 14.8413 91.6364 15.1447 92.5317 15.7597C93.4354 16.3747 93.8872 17.3095 93.8872 18.564C93.8872 19.3102 93.6781 19.9416 93.2597 20.4582C92.8413 20.9748 92.264 21.3602 91.5277 21.6144C92.4648 21.8686 93.2346 22.3031 93.8454 22.9181C94.4562 23.5413 94.7574 24.3613 94.7574 25.3945ZM88.8752 16.8995H87.0344V20.8026H88.8752C89.5781 20.8026 90.1554 20.6304 90.6073 20.2942C91.0507 19.958 91.2766 19.4742 91.2766 18.851C91.2766 18.2278 91.0507 17.7522 90.6073 17.4079C90.1554 17.0635 89.5865 16.8995 88.8752 16.8995ZM87.0344 27.6002H89.1514C90.0132 27.6002 90.7328 27.3952 91.2934 26.9934C91.854 26.5916 92.1385 25.9767 92.1385 25.1403C92.1385 24.3367 91.854 23.7381 91.2934 23.3363C90.7328 22.9427 90.0216 22.7459 89.1514 22.7459H87.0344V27.6002Z" fill="#F5E9D6" fill-opacity="0.8"/>
<path d="M97.0403 14.8413H99.4126V24.4688C99.4126 25.3498 99.646 26.0707 100.113 26.6233C100.579 27.176 101.264 27.4483 102.166 27.4483C103.076 27.4483 103.761 27.176 104.227 26.6233C104.686 26.0707 104.92 25.3498 104.92 24.4688V14.8413H107.315V24.5729C107.315 25.6382 107.098 26.5512 106.654 27.3122C106.211 28.0811 105.604 28.6658 104.834 29.0742C104.064 29.4827 103.177 29.683 102.174 29.683C101.171 29.683 100.284 29.4827 99.5137 29.0742C98.7437 28.6658 98.137 28.0811 97.7014 27.3122C97.2658 26.5432 97.0481 25.6302 97.0481 24.5729V14.8413H97.0403Z" fill="#F5E9D6" fill-opacity="0.8"/>
<path d="M110.756 14.8413H115.106C116.127 14.8413 117.016 15.0299 117.772 15.4153C118.528 15.8007 119.121 16.3337 119.542 17.0225C119.963 17.7112 120.173 18.523 120.173 19.4414C120.173 20.532 119.893 21.4504 119.324 22.1965C118.762 22.9427 117.99 23.4757 117.024 23.7873L121.015 29.683H118.131L114.568 24.0661H113.118V29.683H110.74V14.8413H110.756ZM115.012 17.0061H113.141V21.9833H115.012C115.831 21.9833 116.494 21.7702 116.985 21.3356C117.484 20.901 117.733 20.2942 117.733 19.4988C117.733 18.7116 117.484 18.0966 116.985 17.6538C116.486 17.2193 115.831 17.0061 115.012 17.0061Z" fill="#F5E9D6" fill-opacity="0.8"/>
<path d="M134.463 14.4824H136.999V30.8247L125.834 19.5915V30.042H123.299V13.6997L134.463 24.9243V14.4824Z" fill="#F5E9D6" fill-opacity="0.8"/>
<path d="M150.074 29.683L148.323 25.7918H142.758L141.024 29.683H138.141L145.549 13.6997L152.982 29.683H150.074ZM145.549 18.8294L143.487 23.6328H147.627L145.549 18.8294Z" fill="#F5E9D6" fill-opacity="0.8"/>
<path d="M95.9001 33.1084H96.9779V41.1986H100.467V42.2417H95.9001V33.1084Z" fill="#F5E9D6" fill-opacity="0.8"/>
<path d="M101.485 38.1851L100.916 37.3412C101.173 37.1616 101.513 36.9821 101.962 36.8025C102.403 36.623 102.935 36.5332 103.559 36.5332C104.339 36.5332 104.963 36.7038 105.45 37.0539C105.936 37.404 106.175 37.8888 106.175 38.5263V43.2306H105.009V42.3508C104.798 42.6919 104.477 42.9523 104.046 43.1228C103.614 43.2934 103.201 43.3832 102.788 43.3832C102.385 43.3832 101.999 43.3024 101.641 43.1318C101.283 42.9702 100.999 42.7278 100.788 42.4136C100.577 42.0994 100.467 41.7223 100.467 41.2734C100.467 40.636 100.696 40.1243 101.155 39.7382C101.614 39.3522 102.256 39.1637 103.082 39.1637C103.532 39.1637 103.908 39.2175 104.229 39.3163C104.541 39.4151 104.798 39.5318 104.991 39.6485V38.6968C104.991 38.2479 104.844 37.9427 104.55 37.7811C104.257 37.6195 103.899 37.5387 103.477 37.5387C102.972 37.5387 102.55 37.6195 102.21 37.7811C101.88 37.9337 101.632 38.0684 101.485 38.1851ZM101.66 41.2106C101.66 41.5877 101.797 41.8839 102.063 42.0904C102.33 42.2969 102.678 42.3957 103.11 42.3957C103.642 42.3957 104.092 42.243 104.468 41.9288C104.835 41.6146 105.019 41.2016 105.019 40.6719V40.4295C104.743 40.2949 104.468 40.2051 104.183 40.1422C103.899 40.0884 103.605 40.0614 103.293 40.0614C102.733 40.0614 102.32 40.1602 102.054 40.3667C101.788 40.5642 101.66 40.8425 101.66 41.2106Z" fill="#F5E9D6" fill-opacity="0.8"/>
<path d="M113.025 40.2616C113.025 40.9007 112.902 41.4579 112.646 41.9249C112.391 42.392 112.059 42.7525 111.633 43.0065C111.208 43.2605 110.744 43.3834 110.225 43.3834C109.808 43.3834 109.436 43.2851 109.104 43.0802C108.771 42.8836 108.501 42.5968 108.299 42.2199V43.2441H107.317V33.1084H108.299V38.3033C108.501 37.9263 108.771 37.6477 109.104 37.4429C109.436 37.2463 109.808 37.1397 110.225 37.1397C110.744 37.1397 111.208 37.2626 111.633 37.5167C112.059 37.7707 112.391 38.123 112.646 38.59C112.894 39.0489 113.025 39.6061 113.025 40.2616ZM112.028 40.2616C112.028 39.8027 111.943 39.4094 111.765 39.0899C111.587 38.7703 111.355 38.5245 111.061 38.3606C110.767 38.1967 110.45 38.1148 110.094 38.1148C109.808 38.1148 109.522 38.1967 109.243 38.3606C108.965 38.5245 108.733 38.7703 108.555 39.0899C108.377 39.4094 108.284 39.8027 108.284 40.2616C108.284 40.7204 108.377 41.1137 108.555 41.4333C108.733 41.7528 108.965 41.9987 109.243 42.1625C109.522 42.3264 109.8 42.4083 110.094 42.4083C110.45 42.4083 110.767 42.3264 111.061 42.1625C111.355 41.9987 111.587 41.7528 111.765 41.4333C111.943 41.1137 112.028 40.7204 112.028 40.2616Z" fill="#F5E9D6" fill-opacity="0.8"/>
<path d="M114.999 41.217C115.184 41.5226 115.411 41.7833 115.689 41.9991C115.958 42.2148 116.286 42.3317 116.673 42.3317C116.976 42.3317 117.211 42.2598 117.388 42.1069C117.564 41.9631 117.649 41.7563 117.649 41.5046C117.649 41.2799 117.581 41.0821 117.438 40.9293C117.304 40.7765 117.127 40.6416 116.908 40.5338C116.698 40.4259 116.471 40.318 116.227 40.2281C115.958 40.1113 115.689 39.9764 115.42 39.8236C115.151 39.6708 114.924 39.464 114.739 39.2123C114.554 38.9606 114.461 38.646 114.461 38.2594C114.461 37.8729 114.554 37.5493 114.747 37.2886C114.94 37.0279 115.184 36.8391 115.496 36.7222C115.807 36.6054 116.118 36.5334 116.454 36.5334C116.942 36.5334 117.388 36.6593 117.791 36.902C118.195 37.1537 118.49 37.4504 118.675 37.8189L117.817 38.4033C117.649 38.1516 117.438 37.9538 117.186 37.792C116.934 37.6302 116.648 37.5493 116.328 37.5493C116.109 37.5493 115.916 37.6032 115.756 37.7021C115.596 37.81 115.512 37.9718 115.512 38.1875C115.512 38.4572 115.647 38.6729 115.908 38.8348C116.168 39.0056 116.463 39.1584 116.799 39.3022C117.152 39.455 117.48 39.6168 117.775 39.7966C118.069 39.9764 118.305 40.1832 118.473 40.4349C118.649 40.6866 118.733 41.0012 118.733 41.3878C118.733 41.9631 118.54 42.4306 118.153 42.8171C117.766 43.1947 117.253 43.3834 116.622 43.3834C116.21 43.3834 115.84 43.3025 115.512 43.1497C115.184 42.9969 114.907 42.7901 114.68 42.5384C114.453 42.2867 114.284 42.035 114.167 41.7833L114.999 41.217Z" fill="#F5E9D6" fill-opacity="0.8"/>
<path d="M54.9667 4.41825C54.9667 3.9045 55.0791 3.45925 55.304 3.0825C55.5358 2.6989 55.8356 2.40435 56.2036 2.19885C56.5717 1.9865 56.9737 1.88033 57.4099 1.88033C57.7507 1.88033 58.0573 1.92485 58.3299 2.0139C58.6094 2.10295 58.8581 2.22625 59.0762 2.3838C59.2943 2.5345 59.4851 2.70575 59.6487 2.89755V1.45905C59.3556 1.2056 59.0319 1.0138 58.6775 0.88365C58.3299 0.7535 57.8938 0.688425 57.369 0.688425C56.8443 0.688425 56.3536 0.7809 55.897 0.96585C55.4472 1.14395 55.0553 1.40083 54.7214 1.73648C54.3874 2.06527 54.125 2.45915 53.9342 2.9181C53.7502 3.3702 53.6582 3.87025 53.6582 4.41825C53.6582 4.9594 53.7502 5.45945 53.9342 5.9184C54.125 6.3705 54.3874 6.76438 54.7214 7.10003C55.0553 7.43568 55.4472 7.69255 55.897 7.87065C56.3536 8.04875 56.8443 8.1378 57.369 8.1378C57.8938 8.1378 58.3299 8.07273 58.6775 7.94257C59.0319 7.81243 59.3556 7.62405 59.6487 7.37745V5.92868C59.4851 6.12733 59.2943 6.30543 59.0762 6.46298C58.8581 6.61368 58.6094 6.73355 58.3299 6.8226C58.0573 6.91165 57.7507 6.95618 57.4099 6.95618C56.9737 6.95618 56.5717 6.85 56.2036 6.63765C55.8356 6.4253 55.5358 6.13075 55.304 5.754C55.0791 5.3704 54.9667 4.92515 54.9667 4.41825Z" fill="#F5E9D6" fill-opacity="0.8"/>
<path d="M62.1369 3.288H61.0431V8.0145H62.1369V3.288ZM63.5374 4.46962L64.0792 3.5346C63.9702 3.40445 63.8407 3.31198 63.6907 3.25717C63.5408 3.20238 63.3807 3.17497 63.2103 3.17497C62.9718 3.17497 62.74 3.26403 62.5151 3.44213C62.2971 3.61338 62.1165 3.84627 61.9733 4.14082C61.837 4.42852 61.7689 4.76075 61.7689 5.1375L62.1369 5.35327C62.1369 5.12722 62.1608 4.932 62.2085 4.7676C62.263 4.59635 62.3482 4.46278 62.464 4.36688C62.5799 4.27098 62.7298 4.22302 62.9138 4.22302C63.0501 4.22302 63.1626 4.24358 63.2512 4.28468C63.3466 4.32577 63.442 4.38742 63.5374 4.46962Z" fill="#F5E9D6" fill-opacity="0.8"/>
<path d="M66.7314 8.11725C67.2766 8.11725 67.7435 8.01108 68.1319 7.79873C68.5204 7.57952 68.8407 7.25758 69.0928 6.83288L68.1319 6.4527C67.9888 6.70615 67.8048 6.89453 67.5799 7.01783C67.355 7.14113 67.0892 7.20278 66.7825 7.20278C66.4963 7.20278 66.2544 7.14113 66.0567 7.01783C65.8591 6.89453 65.7057 6.713 65.5967 6.47325C65.4945 6.2335 65.4468 5.9458 65.4536 5.61015C65.4536 5.26765 65.5047 4.97995 65.6069 4.74705C65.716 4.51415 65.8659 4.33605 66.0567 4.21275C66.2544 4.08945 66.4929 4.0278 66.7723 4.0278C67.004 4.0278 67.2051 4.07917 67.3754 4.18192C67.5526 4.28467 67.6889 4.42852 67.7843 4.61347C67.8866 4.79842 67.9377 5.01762 67.9377 5.27107C67.9377 5.31902 67.9241 5.37725 67.8968 5.44575C67.8764 5.51425 67.8559 5.56905 67.8355 5.61015L68.1728 5.1375H64.9936V5.90812H69.1235C69.1235 5.88072 69.1235 5.8362 69.1235 5.77455C69.1303 5.7129 69.1337 5.65468 69.1337 5.59988C69.1337 5.09298 69.0417 4.66143 68.8577 4.30523C68.6737 3.94218 68.4045 3.66475 68.0501 3.47295C67.7026 3.28115 67.28 3.18525 66.7825 3.18525C66.285 3.18525 65.8523 3.288 65.4843 3.4935C65.1162 3.69215 64.83 3.97642 64.6256 4.34632C64.4279 4.71623 64.3291 5.1512 64.3291 5.65125C64.3291 6.14445 64.4279 6.576 64.6256 6.9459C64.8232 7.3158 65.1026 7.6035 65.4638 7.809C65.8318 8.0145 66.2544 8.11725 66.7314 8.11725Z" fill="#F5E9D6" fill-opacity="0.8"/>
<path d="M70.8927 6.54518C70.8927 6.39448 70.9267 6.26775 70.9949 6.165C71.0699 6.06225 71.1789 5.98347 71.322 5.92868C71.4651 5.86702 71.6525 5.8362 71.8843 5.8362C72.15 5.8362 72.4022 5.87045 72.6407 5.93895C72.8793 6.00745 73.1042 6.11705 73.3154 6.26775V5.70262C73.2541 5.62727 73.1485 5.54508 72.9985 5.45603C72.8486 5.36013 72.6578 5.27793 72.4261 5.20942C72.2012 5.14092 71.932 5.10667 71.6185 5.10667C71.0324 5.10667 70.5792 5.24368 70.2589 5.51767C69.9386 5.78483 69.7784 6.14788 69.7784 6.60683C69.7784 6.92878 69.8534 7.20278 70.0033 7.42882C70.1532 7.65487 70.3543 7.82613 70.6064 7.94257C70.8586 8.05902 71.1312 8.11725 71.4242 8.11725C71.6968 8.11725 71.9626 8.0693 72.2216 7.9734C72.4874 7.87065 72.7055 7.71653 72.8759 7.51102C73.053 7.30552 73.1416 7.05208 73.1416 6.75068L72.9781 6.13417C72.9781 6.37392 72.9236 6.57943 72.8145 6.75068C72.7055 6.92193 72.559 7.0555 72.3749 7.1514C72.1978 7.24045 71.9967 7.28498 71.7718 7.28498C71.6014 7.28498 71.4481 7.25758 71.3118 7.20278C71.1823 7.14797 71.0801 7.06578 71.0051 6.95618C70.9301 6.83973 70.8927 6.70273 70.8927 6.54518ZM70.5451 4.521C70.6201 4.47305 70.7257 4.41482 70.862 4.34632C70.9983 4.27097 71.1619 4.20933 71.3527 4.16138C71.5503 4.10658 71.7582 4.07917 71.9763 4.07917C72.1194 4.07917 72.2523 4.09287 72.3749 4.12027C72.4976 4.14767 72.6033 4.1922 72.6918 4.25385C72.7873 4.3155 72.8588 4.39427 72.9065 4.49017C72.9542 4.58607 72.9781 4.70937 72.9781 4.86007V8.0145H74.0617V4.6443C74.0617 4.3292 73.9765 4.06205 73.8061 3.84285C73.6426 3.62365 73.4108 3.45925 73.111 3.34965C72.8111 3.2332 72.4704 3.17497 72.0887 3.17497C71.6457 3.17497 71.2573 3.23662 70.9233 3.35993C70.5894 3.48322 70.3134 3.60995 70.0953 3.7401L70.5451 4.521Z" fill="#F5E9D6" fill-opacity="0.8"/>
<path d="M74.6945 3.288V4.26412H77.3626V3.288H74.6945ZM75.4919 1.644V8.0145H76.5755V1.644H75.4919Z" fill="#F5E9D6" fill-opacity="0.8"/>
<path d="M80.1686 8.11725C80.7138 8.11725 81.1806 8.01108 81.5691 7.79873C81.9575 7.57952 82.2778 7.25758 82.53 6.83288L81.5691 6.4527C81.426 6.70615 81.242 6.89453 81.0171 7.01783C80.7922 7.14113 80.5264 7.20278 80.2197 7.20278C79.9335 7.20278 79.6915 7.14113 79.4939 7.01783C79.2962 6.89453 79.1429 6.713 79.0339 6.47325C78.9316 6.2335 78.8839 5.9458 78.8907 5.61015C78.8907 5.26765 78.9419 4.97995 79.0441 4.74705C79.1531 4.51415 79.3031 4.33605 79.4939 4.21275C79.6915 4.08945 79.93 4.0278 80.2095 4.0278C80.4412 4.0278 80.6422 4.07917 80.8126 4.18192C80.9898 4.28467 81.1261 4.42852 81.2215 4.61347C81.3237 4.79842 81.3748 5.01762 81.3748 5.27107C81.3748 5.31902 81.3612 5.37725 81.334 5.44575C81.3135 5.51425 81.2931 5.56905 81.2726 5.61015L81.61 5.1375H78.4307V5.90812H82.5607C82.5607 5.88072 82.5607 5.8362 82.5607 5.77455C82.5675 5.7129 82.5709 5.65468 82.5709 5.59988C82.5709 5.09298 82.4789 4.66143 82.2949 4.30523C82.1109 3.94218 81.8417 3.66475 81.4873 3.47295C81.1397 3.28115 80.7172 3.18525 80.2197 3.18525C79.7222 3.18525 79.2894 3.288 78.9214 3.4935C78.5534 3.69215 78.2672 3.97642 78.0627 4.34632C77.8651 4.71623 77.7663 5.1512 77.7663 5.65125C77.7663 6.14445 77.8651 6.576 78.0627 6.9459C78.2604 7.3158 78.5398 7.6035 78.901 7.809C79.269 8.0145 79.6915 8.11725 80.1686 8.11725Z" fill="#F5E9D6" fill-opacity="0.8"/>
<path d="M87.1717 0V8.0145H88.286V0H87.1717ZM83.2769 5.65125C83.2769 6.165 83.3825 6.60682 83.5938 6.97672C83.8051 7.34662 84.0845 7.6309 84.432 7.82955C84.7864 8.02135 85.1647 8.11725 85.5668 8.11725C85.962 8.11725 86.3062 8.01793 86.5992 7.81928C86.8991 7.62063 87.1342 7.33635 87.3046 6.96645C87.4818 6.59655 87.5704 6.15815 87.5704 5.65125C87.5704 5.1375 87.4818 4.6991 87.3046 4.33605C87.1342 3.96615 86.8991 3.68187 86.5992 3.48323C86.3062 3.28457 85.962 3.18525 85.5668 3.18525C85.1647 3.18525 84.7864 3.28457 84.432 3.48323C84.0845 3.67503 83.8051 3.95587 83.5938 4.32577C83.3825 4.68882 83.2769 5.13065 83.2769 5.65125ZM84.4218 5.65125C84.4218 5.33615 84.4866 5.06557 84.6161 4.83952C84.7455 4.61347 84.9159 4.44222 85.1272 4.32577C85.3453 4.20932 85.5804 4.1511 85.8326 4.1511C86.0506 4.1511 86.2619 4.20932 86.4664 4.32577C86.6708 4.44222 86.8378 4.61347 86.9673 4.83952C87.1036 5.05872 87.1717 5.3293 87.1717 5.65125C87.1717 5.9732 87.1036 6.2472 86.9673 6.47325C86.8378 6.69245 86.6708 6.86027 86.4664 6.97672C86.2619 7.09317 86.0506 7.1514 85.8326 7.1514C85.5804 7.1514 85.3453 7.09317 85.1272 6.97672C84.9159 6.86027 84.7455 6.68903 84.6161 6.46298C84.4866 6.23693 84.4218 5.96635 84.4218 5.65125Z" fill="#F5E9D6" fill-opacity="0.8"/>
<path d="M93.7926 0H92.6784V8.0145H93.7926V0ZM97.6874 5.65125C97.6874 5.13065 97.5818 4.68882 97.3705 4.32577C97.1593 3.95587 96.8799 3.67503 96.5323 3.48323C96.1847 3.28457 95.8065 3.18525 95.3976 3.18525C95.0091 3.18525 94.6649 3.28457 94.3651 3.48323C94.0652 3.68187 93.8267 3.96615 93.6495 4.33605C93.4791 4.6991 93.3939 5.1375 93.3939 5.65125C93.3939 6.15815 93.4791 6.59655 93.6495 6.96645C93.8267 7.33635 94.0652 7.62063 94.3651 7.81928C94.6649 8.01793 95.0091 8.11725 95.3976 8.11725C95.8065 8.11725 96.1847 8.02135 96.5323 7.82955C96.8799 7.6309 97.1593 7.34662 97.3705 6.97672C97.5818 6.60682 97.6874 6.165 97.6874 5.65125ZM96.5425 5.65125C96.5425 5.96635 96.4778 6.23693 96.3483 6.46298C96.2188 6.68903 96.0484 6.86027 95.8371 6.97672C95.6259 7.09317 95.3908 7.1514 95.1318 7.1514C94.9137 7.1514 94.7024 7.09317 94.498 6.97672C94.2935 6.86027 94.1231 6.69245 93.9868 6.47325C93.8574 6.2472 93.7926 5.9732 93.7926 5.65125C93.7926 5.3293 93.8574 5.05872 93.9868 4.83952C94.1231 4.61347 94.2935 4.44222 94.498 4.32577C94.7024 4.20932 94.9137 4.1511 95.1318 4.1511C95.3908 4.1511 95.6259 4.20932 95.8371 4.32577C96.0484 4.44222 96.2188 4.61347 96.3483 4.83952C96.4778 5.06557 96.5425 5.33615 96.5425 5.65125Z" fill="#F5E9D6" fill-opacity="0.8"/>
<path d="M102.75 3.288H101.564L100.092 6.99727L100.613 7.0281L99.1106 3.288H97.843L99.7444 7.45965L98.5075 10.275H99.6831L102.75 3.288Z" fill="#F5E9D6" fill-opacity="0.8"/>
</g>
</svg>
