<svg width="260" height="53" viewBox="0 0 260 53" fill="none" xmlns="http://www.w3.org/2000/svg">
<path d="M77.8395 18.0032L72.1724 31.2382C71.2132 33.4804 68.9582 34.9431 66.4599 34.9431C65.816 34.9431 65.3885 34.2936 65.6584 33.7246L78.0266 7.73799C78.5075 6.72991 79.9797 6.72472 80.4687 7.7302L95.4954 38.739C95.7465 39.256 95.3591 39.851 94.7713 39.851H94.5415C92.078 39.851 89.8524 38.4324 88.8691 36.237L80.6958 17.9825C80.148 16.7613 78.3659 16.7769 77.8395 18.0032Z" fill="white"/>
<path d="M105.613 20.7293C105.201 20.4128 104.816 20.1755 104.461 20.0173C104.105 19.859 103.651 19.7799 103.104 19.7799C102.007 19.7799 101.21 20.1831 100.716 20.987C100.222 21.7909 99.9752 22.8398 99.9752 24.1312V34.3726H95.5723V16.1815H99.9752V18.3559C100.551 17.5647 101.215 16.9318 101.972 16.4571C102.726 15.9825 103.502 15.7451 104.296 15.7451C104.981 15.7451 105.626 15.8574 106.229 16.082C106.832 16.3066 107.352 16.6562 107.793 17.1309L105.613 20.7293Z" fill="white"/>
<path d="M128.903 25.4793C128.903 27.5872 128.482 29.3836 127.639 30.8685C126.796 32.3534 125.68 33.4892 124.292 34.2814C122.904 35.0708 121.394 35.4682 119.762 35.4682C118.374 35.4682 117.136 35.1567 116.048 34.5311C114.96 33.9081 114.062 33.0113 113.354 31.8486V35.052H108.905V2.59619H113.354V19.1128C114.06 17.9474 114.958 17.0532 116.048 16.4303C117.136 15.8073 118.374 15.4931 119.762 15.4931C121.394 15.4931 122.904 15.8879 124.292 16.68C125.68 17.4694 126.794 18.6079 127.639 20.0928C128.482 21.5751 128.903 23.3714 128.903 25.4793ZM124.331 25.4793C124.331 23.5648 123.773 22.0745 122.659 21.0058C121.542 19.9371 120.222 19.4054 118.7 19.4054C117.828 19.4054 116.986 19.6417 116.169 20.1116C115.353 20.5842 114.678 21.2689 114.149 22.1712C113.62 23.0734 113.354 24.1743 113.354 25.4793C113.354 26.7843 113.62 27.8852 114.149 28.7875C114.678 29.6897 115.353 30.3771 116.169 30.847C116.986 31.3196 117.828 31.5532 118.7 31.5532C120.222 31.5532 121.542 31.0189 122.659 29.9502C123.775 28.8841 124.331 27.3939 124.331 25.4793Z" fill="white"/>
<path d="M130.015 25.6067C130.015 23.663 130.476 21.9501 131.399 20.4704C132.322 18.9908 133.577 17.8347 135.164 16.9994C136.752 16.1641 138.553 15.7451 140.569 15.7451C142.555 15.7451 144.348 16.1641 145.952 16.9994C147.553 17.8347 148.817 18.9934 149.739 20.4704C150.662 21.9501 151.124 23.663 151.124 25.6067C151.124 27.5531 150.662 29.2634 149.739 30.743C148.817 32.2227 147.553 33.3788 145.952 34.2141C144.348 35.0494 142.555 35.4683 140.569 35.4683C138.553 35.4683 136.754 35.052 135.164 34.2141C133.574 33.3788 132.319 32.22 131.399 30.743C130.476 29.2634 130.015 27.5531 130.015 25.6067ZM134.739 25.6067C134.739 27.3595 135.299 28.7914 136.419 29.8998C137.54 31.0082 138.924 31.5651 140.569 31.5651C142.214 31.5651 143.598 31.0108 144.719 29.8998C145.84 28.7914 146.4 27.3595 146.4 25.6067C146.4 23.8274 145.84 22.3876 144.719 21.2924C143.598 20.1973 142.214 19.6484 140.569 19.6484C138.924 19.6484 137.54 20.1973 136.419 21.2924C135.299 22.3876 134.739 23.8274 134.739 25.6067Z" fill="white"/>
<path d="M163.386 20.7293C162.975 20.4128 162.59 20.1755 162.234 20.0173C161.878 19.859 161.424 19.7799 160.877 19.7799C159.78 19.7799 158.984 20.1831 158.49 20.987C157.996 21.7909 157.749 22.8398 157.749 24.1312V34.3726H153.346V16.1815H157.749V18.3559C158.325 17.5647 158.989 16.9318 159.743 16.4571C160.497 15.9825 161.273 15.7451 162.069 15.7451C162.754 15.7451 163.4 15.8574 164.003 16.082C164.605 16.3066 165.126 16.6562 165.567 17.1309L163.386 20.7293Z" fill="white"/>
<path d="M188.897 16.1041H193.678L198.014 27.5003L203.199 14.6494L208.628 27.5406L213.003 16.1041H217.783L209.073 36.5641L203.197 23.6729L197.606 36.5641L188.897 16.1041Z" fill="white"/>
<path d="M222.072 21.1172L220.204 17.9998C221.111 17.4811 222.256 16.9757 223.641 16.4834C225.027 15.9912 226.64 15.7451 228.478 15.7451C230.855 15.7451 232.813 16.2585 234.355 17.2826C235.896 18.3068 236.669 19.749 236.669 21.6094V35.0581H232.172V32.4753C231.55 33.4862 230.63 34.2378 229.414 34.73C228.198 35.2222 226.966 35.4683 225.723 35.4683C224.477 35.4683 223.34 35.2354 222.308 34.7723C221.275 34.3092 220.448 33.6238 219.826 32.7214C219.205 31.819 218.893 30.7261 218.893 29.44C218.893 27.6087 219.558 26.1532 220.886 25.0735C222.214 23.9938 224.096 23.4539 226.53 23.4539C227.804 23.4539 228.908 23.5915 229.841 23.8641C230.775 24.1367 231.553 24.4384 232.175 24.7665V22.4695C232.175 21.321 231.786 20.5165 231.008 20.0507C230.23 19.585 229.233 19.3547 228.017 19.3547C226.632 19.3547 225.399 19.5744 224.326 20.011C223.247 20.4477 222.497 20.8155 222.072 21.1172ZM223.515 29.1938C223.515 30.1518 223.855 30.8822 224.534 31.3877C225.213 31.8931 226.09 32.1472 227.166 32.1472C228.524 32.1472 229.696 31.7449 230.688 30.9378C231.676 30.1306 232.172 29.0033 232.172 27.5558V27.27C230.814 26.6692 229.299 26.3676 227.631 26.3676C226.188 26.3676 225.142 26.6216 224.49 27.1271C223.838 27.6299 223.515 28.3206 223.515 29.1938Z" fill="white"/>
<path d="M244.451 44.2342H240.003V16.2784H244.451V19.4436C245.131 18.2656 246.016 17.3529 247.104 16.7108C248.191 16.0661 249.442 15.7451 250.859 15.7451C252.492 15.7451 254.001 16.1431 255.389 16.9364C256.777 17.7323 257.891 18.8678 258.737 20.3483C259.58 21.8287 260.001 23.6248 260.001 25.7341C260.001 27.8459 259.58 29.6395 258.737 31.1199C257.894 32.6003 256.777 33.7305 255.389 34.5105C254.001 35.2906 252.492 35.6832 250.859 35.6832C249.445 35.6832 248.194 35.3675 247.104 34.7387C246.016 34.1073 245.131 33.2052 244.451 32.0246V44.2342ZM255.429 25.7341C255.429 23.8424 254.87 22.3832 253.756 21.3564C252.64 20.3297 251.32 19.815 249.798 19.815C248.926 19.815 248.083 20.0405 247.267 20.4942C246.45 20.9452 245.776 21.6111 245.247 22.4893C244.717 23.3675 244.451 24.45 244.451 25.7367C244.451 27.0261 244.717 28.1086 245.247 28.9841C245.776 29.8623 246.45 30.5256 247.267 30.9766C248.083 31.4276 248.926 31.6558 249.798 31.6558C251.32 31.6558 252.64 31.1411 253.756 30.1143C254.873 29.0849 255.429 27.6257 255.429 25.7341Z" fill="white"/>
<path d="M187.204 16.7967L180.496 14.4384C180.174 14.3239 180.09 13.8931 180.346 13.6641L181.347 12.7562V12.7153C180.433 11.881 179.252 11.4612 177.803 11.4612C176.47 11.4612 175.49 11.7747 174.865 12.41C174.236 13.0452 173.927 13.7813 173.927 14.6292C173.927 15.7825 174.428 16.7695 175.437 17.5846C175.74 17.83 176.098 18.0727 176.517 18.318C178.37 20.0384 181.75 23.6154 182.48 28.0758C182.527 28.3702 182.556 28.6429 182.567 28.8937C182.511 28.0049 182.266 27.2688 181.824 26.6908C181.32 26.0283 180.604 25.4666 179.679 25.0004C178.754 24.5342 177.692 24.0789 176.496 23.629C175.788 23.3755 174.997 23.0347 174.125 22.6148C173.256 22.1922 172.426 21.6442 171.638 20.9654C170.847 20.2892 170.194 19.4631 169.675 18.4925C169.159 17.5219 168.9 16.3441 168.9 14.9646C168.9 13.3887 169.296 12.001 170.083 10.8014C170.874 9.60724 171.943 8.66936 173.287 7.99322C174.636 7.3198 176.167 6.979 177.879 6.979C179.568 6.979 181.039 7.29526 182.29 7.93051C183.225 8.40217 184.05 8.96654 184.767 9.62087C184.775 9.62905 184.788 9.62905 184.796 9.62087L185.673 8.82749C185.929 8.59575 186.332 8.73752 186.398 9.08377L187.778 16.2733C187.847 16.6195 187.525 16.9112 187.204 16.7967Z" fill="white"/>
<path d="M187.787 28.0948C187.787 29.8546 187.351 31.3659 186.478 32.634C185.603 33.9022 184.478 34.8749 183.096 35.5521C181.714 36.2267 180.246 36.564 178.682 36.564C177.065 36.564 175.579 36.2345 174.225 35.5704C172.868 34.9115 171.677 34.0251 170.646 32.9164C170.141 32.3752 169.69 31.8104 169.289 31.2221C168.567 30.1657 168.88 28.6779 169.987 28.0216C170.946 27.4516 172.169 27.815 172.83 28.7354C173.4 29.5329 174.015 30.218 174.669 30.7906C175.365 31.3973 176.137 31.8156 176.987 32.0457C177.025 32.0562 177.06 32.0666 177.095 32.0745C177.539 32.2026 178.011 32.2784 178.515 32.281C179.095 32.2889 180.178 32.2915 181.118 31.6744C181.128 31.6744 181.136 31.6666 181.146 31.6561C181.361 31.528 181.56 31.3816 181.744 31.2142C182.511 30.5109 182.894 29.5931 182.894 28.4583V28.4138C182.894 28.3092 182.892 28.1968 182.884 28.0791C182.874 27.8386 182.846 27.5797 182.801 27.2947C182.102 23.017 178.866 19.5864 177.093 17.9365C178.031 18.483 179.272 19.0347 180.826 19.5838C181.92 19.9603 183.003 20.5016 184.072 21.205C185.139 21.9083 186.024 22.8183 186.731 23.94C187.439 25.0643 187.787 26.4502 187.787 28.0948Z" fill="white"/>
<path d="M108.905 42.9193V50.5894H110.231V42.9193H108.905ZM109.692 44.0589H111.276C111.733 44.0589 112.1 44.1648 112.377 44.3766C112.654 44.5812 112.793 44.888 112.793 45.2971C112.793 45.7061 112.654 46.0166 112.377 46.2284C112.1 46.4403 111.733 46.5462 111.276 46.5462H109.692V47.6858H111.276C111.853 47.6858 112.351 47.5908 112.77 47.4009C113.19 47.2036 113.516 46.926 113.748 46.5681C113.987 46.2102 114.107 45.7865 114.107 45.2971C114.107 44.8076 113.987 44.3876 113.748 44.037C113.516 43.679 113.19 43.4051 112.77 43.2152C112.351 43.0179 111.853 42.9193 111.276 42.9193H109.692V44.0589Z" fill="white"/>
<path d="M114.566 48.0693C114.566 48.5806 114.686 49.0372 114.926 49.4389C115.173 49.8334 115.506 50.1439 115.926 50.3703C116.353 50.5894 116.828 50.699 117.353 50.699C117.884 50.699 118.36 50.5894 118.779 50.3703C119.199 50.1439 119.528 49.8334 119.768 49.4389C120.015 49.0372 120.139 48.5806 120.139 48.0693C120.139 47.5506 120.015 47.0941 119.768 46.6996C119.528 46.3051 119.199 45.9983 118.779 45.7792C118.36 45.5527 117.884 45.4395 117.353 45.4395C116.828 45.4395 116.353 45.5527 115.926 45.7792C115.506 45.9983 115.173 46.3051 114.926 46.6996C114.686 47.0941 114.566 47.5506 114.566 48.0693ZM115.813 48.0693C115.813 47.7552 115.881 47.4776 116.016 47.2365C116.15 46.9954 116.334 46.8092 116.566 46.6777C116.798 46.5462 117.06 46.4804 117.353 46.4804C117.645 46.4804 117.907 46.5462 118.139 46.6777C118.371 46.8092 118.555 46.9954 118.69 47.2365C118.824 47.4776 118.892 47.7552 118.892 48.0693C118.892 48.3834 118.824 48.661 118.69 48.902C118.555 49.1358 118.371 49.3221 118.139 49.4608C117.907 49.5923 117.645 49.6581 117.353 49.6581C117.06 49.6581 116.798 49.5923 116.566 49.4608C116.334 49.3221 116.15 49.1358 116.016 48.902C115.881 48.661 115.813 48.3834 115.813 48.0693Z" fill="white"/>
<path d="M120.361 45.5491L122.777 50.9401L124.328 47.5433L125.957 50.9401L128.372 45.5491H127.046L125.833 48.5623L124.328 45.1656L122.889 48.5404L121.687 45.5491H120.361Z" fill="white"/>
<path d="M131.229 50.699C131.828 50.699 132.341 50.5858 132.768 50.3593C133.195 50.1256 133.547 49.7823 133.824 49.3294L132.768 48.9239C132.611 49.1942 132.408 49.3951 132.161 49.5266C131.914 49.6581 131.622 49.7238 131.285 49.7238C130.97 49.7238 130.704 49.6581 130.487 49.5266C130.27 49.3951 130.101 49.2015 129.982 48.9458C129.869 48.6902 129.817 48.3834 129.824 48.0254C129.824 47.6602 129.88 47.3534 129.993 47.105C130.113 46.8566 130.277 46.6667 130.487 46.5352C130.704 46.4037 130.967 46.338 131.274 46.338C131.528 46.338 131.749 46.3928 131.937 46.5024C132.131 46.6119 132.281 46.7653 132.386 46.9626C132.498 47.1598 132.554 47.3936 132.554 47.6638C132.554 47.715 132.54 47.7771 132.51 47.8501C132.487 47.9232 132.465 47.9816 132.442 48.0254L132.813 47.5214H129.319V48.3432H133.858C133.858 48.314 133.858 48.2665 133.858 48.2007C133.865 48.135 133.869 48.0729 133.869 48.0145C133.869 47.4739 133.768 47.0137 133.566 46.6338C133.363 46.2467 133.068 45.9508 132.678 45.7463C132.296 45.5418 131.832 45.4395 131.285 45.4395C130.738 45.4395 130.262 45.5491 129.858 45.7682C129.454 45.9801 129.139 46.2832 128.914 46.6777C128.697 47.0721 128.588 47.536 128.588 48.0693C128.588 48.5952 128.697 49.0554 128.914 49.4499C129.131 49.8444 129.439 50.1512 129.836 50.3703C130.24 50.5894 130.704 50.699 131.229 50.699Z" fill="white"/>
<path d="M136.24 45.5491H135.038V50.5894H136.24V45.5491ZM137.78 46.8092L138.375 45.812C138.255 45.6733 138.113 45.5746 137.948 45.5162C137.783 45.4578 137.607 45.4285 137.42 45.4285C137.158 45.4285 136.903 45.5235 136.656 45.7134C136.416 45.8961 136.218 46.1444 136.061 46.4585C135.911 46.7653 135.836 47.1196 135.836 47.5214L136.24 47.7515C136.24 47.5104 136.267 47.3022 136.319 47.1269C136.379 46.9443 136.473 46.8019 136.6 46.6996C136.727 46.5973 136.892 46.5462 137.094 46.5462C137.244 46.5462 137.368 46.5681 137.465 46.6119C137.57 46.6558 137.675 46.7215 137.78 46.8092Z" fill="white"/>
<path d="M141.29 50.699C141.889 50.699 142.402 50.5858 142.829 50.3593C143.256 50.1256 143.608 49.7823 143.885 49.3294L142.829 48.9239C142.672 49.1942 142.47 49.3951 142.223 49.5266C141.975 49.6581 141.683 49.7238 141.346 49.7238C141.032 49.7238 140.766 49.6581 140.549 49.5266C140.331 49.3951 140.163 49.2015 140.043 48.9458C139.931 48.6902 139.878 48.3834 139.886 48.0254C139.886 47.6602 139.942 47.3534 140.054 47.105C140.174 46.8566 140.339 46.6667 140.549 46.5352C140.766 46.4037 141.028 46.338 141.335 46.338C141.59 46.338 141.811 46.3928 141.998 46.5024C142.193 46.6119 142.342 46.7653 142.447 46.9626C142.56 47.1598 142.616 47.3936 142.616 47.6638C142.616 47.715 142.601 47.7771 142.571 47.8501C142.548 47.9232 142.526 47.9816 142.503 48.0254L142.874 47.5214H139.38V48.3432H143.919C143.919 48.314 143.919 48.2665 143.919 48.2007C143.927 48.135 143.93 48.0729 143.93 48.0145C143.93 47.4739 143.829 47.0137 143.627 46.6338C143.425 46.2467 143.129 45.9508 142.739 45.7463C142.357 45.5418 141.893 45.4395 141.346 45.4395C140.799 45.4395 140.324 45.5491 139.919 45.7682C139.515 45.9801 139.2 46.2832 138.976 46.6777C138.758 47.0721 138.65 47.536 138.65 48.0693C138.65 48.5952 138.758 49.0554 138.976 49.4499C139.193 49.8444 139.5 50.1512 139.897 50.3703C140.301 50.5894 140.766 50.699 141.29 50.699Z" fill="white"/>
<path d="M148.987 42.0427V50.5894H150.212V42.0427H148.987ZM144.706 48.0693C144.706 48.6171 144.822 49.0883 145.055 49.4828C145.287 49.8772 145.594 50.1804 145.976 50.3922C146.365 50.5968 146.781 50.699 147.223 50.699C147.657 50.699 148.036 50.5931 148.358 50.3813C148.687 50.1694 148.946 49.8663 149.133 49.4718C149.328 49.0773 149.425 48.6098 149.425 48.0693C149.425 47.5214 149.328 47.0539 149.133 46.6667C148.946 46.2723 148.687 45.9691 148.358 45.7573C148.036 45.5454 147.657 45.4395 147.223 45.4395C146.781 45.4395 146.365 45.5454 145.976 45.7573C145.594 45.9618 145.287 46.2613 145.055 46.6558C144.822 47.0429 144.706 47.5141 144.706 48.0693ZM145.965 48.0693C145.965 47.7332 146.036 47.4447 146.178 47.2036C146.32 46.9626 146.508 46.7799 146.74 46.6558C146.98 46.5316 147.238 46.4695 147.515 46.4695C147.755 46.4695 147.987 46.5316 148.212 46.6558C148.436 46.7799 148.62 46.9626 148.762 47.2036C148.912 47.4374 148.987 47.7259 148.987 48.0693C148.987 48.4126 148.912 48.7048 148.762 48.9458C148.62 49.1796 148.436 49.3586 148.212 49.4828C147.987 49.6069 147.755 49.669 147.515 49.669C147.238 49.669 146.98 49.6069 146.74 49.4828C146.508 49.3586 146.32 49.176 146.178 48.9349C146.036 48.6938 145.965 48.4053 145.965 48.0693Z" fill="white"/>
<path d="M156.264 42.0427H155.039V50.5894H156.264V42.0427ZM160.544 48.0693C160.544 47.5141 160.428 47.0429 160.196 46.6558C159.964 46.2613 159.657 45.9618 159.275 45.7573C158.893 45.5454 158.477 45.4395 158.028 45.4395C157.601 45.4395 157.222 45.5454 156.893 45.7573C156.563 45.9691 156.301 46.2723 156.106 46.6667C155.919 47.0539 155.826 47.5214 155.826 48.0693C155.826 48.6098 155.919 49.0773 156.106 49.4718C156.301 49.8663 156.563 50.1694 156.893 50.3813C157.222 50.5931 157.601 50.699 158.028 50.699C158.477 50.699 158.893 50.5968 159.275 50.3922C159.657 50.1804 159.964 49.8772 160.196 49.4828C160.428 49.0883 160.544 48.6171 160.544 48.0693ZM159.286 48.0693C159.286 48.4053 159.215 48.6938 159.073 48.9349C158.93 49.176 158.743 49.3586 158.511 49.4828C158.279 49.6069 158.02 49.669 157.736 49.669C157.496 49.669 157.264 49.6069 157.039 49.4828C156.814 49.3586 156.627 49.1796 156.477 48.9458C156.335 48.7048 156.264 48.4126 156.264 48.0693C156.264 47.7259 156.335 47.4374 156.477 47.2036C156.627 46.9626 156.814 46.7799 157.039 46.6558C157.264 46.5316 157.496 46.4695 157.736 46.4695C158.02 46.4695 158.279 46.5316 158.511 46.6558C158.743 46.7799 158.93 46.9626 159.073 47.2036C159.215 47.4447 159.286 47.7332 159.286 48.0693Z" fill="white"/>
<path d="M166.108 45.5491H164.805L163.187 49.5047L163.76 49.5375L162.109 45.5491H160.715L162.805 49.9978L161.446 53.0001H162.738L166.108 45.5491Z" fill="white"/>
<path d="M171.945 46.9297L174.439 50.5894H176.046L173.372 46.9297H171.945ZM170.316 42.9193V50.5894H171.641V42.9193H170.316ZM171.102 44.037H172.686C172.993 44.037 173.259 44.0881 173.484 44.1904C173.709 44.2926 173.885 44.4387 174.012 44.6287C174.139 44.8186 174.203 45.0523 174.203 45.3299C174.203 45.6002 174.139 45.834 174.012 46.0312C173.885 46.2211 173.709 46.3672 173.484 46.4695C173.259 46.5645 172.993 46.6119 172.686 46.6119H171.102V47.6858H172.742C173.319 47.6858 173.817 47.5871 174.237 47.3899C174.656 47.1927 174.982 46.9151 175.214 46.5571C175.454 46.1992 175.574 45.7792 175.574 45.2971C175.574 44.8149 175.454 44.3986 175.214 44.0479C174.982 43.69 174.656 43.4124 174.237 43.2152C173.817 43.0179 173.319 42.9193 172.742 42.9193H171.102V44.037Z" fill="white"/>
<path d="M176.503 48.0693C176.503 48.5806 176.623 49.0372 176.863 49.4389C177.11 49.8334 177.443 50.1439 177.863 50.3703C178.29 50.5894 178.765 50.699 179.289 50.699C179.821 50.699 180.297 50.5894 180.716 50.3703C181.136 50.1439 181.465 49.8334 181.705 49.4389C181.952 49.0372 182.076 48.5806 182.076 48.0693C182.076 47.5506 181.952 47.0941 181.705 46.6996C181.465 46.3051 181.136 45.9983 180.716 45.7792C180.297 45.5527 179.821 45.4395 179.289 45.4395C178.765 45.4395 178.29 45.5527 177.863 45.7792C177.443 45.9983 177.11 46.3051 176.863 46.6996C176.623 47.0941 176.503 47.5506 176.503 48.0693ZM177.75 48.0693C177.75 47.7552 177.818 47.4776 177.952 47.2365C178.087 46.9954 178.271 46.8092 178.503 46.6777C178.735 46.5462 178.997 46.4804 179.289 46.4804C179.582 46.4804 179.844 46.5462 180.076 46.6777C180.308 46.8092 180.492 46.9954 180.626 47.2365C180.761 47.4776 180.829 47.7552 180.829 48.0693C180.829 48.3834 180.761 48.661 180.626 48.902C180.492 49.1358 180.308 49.3221 180.076 49.4608C179.844 49.5923 179.582 49.6581 179.289 49.6581C178.997 49.6581 178.735 49.5923 178.503 49.4608C178.271 49.3221 178.087 49.1358 177.952 48.902C177.818 48.661 177.75 48.3834 177.75 48.0693Z" fill="white"/>
<path d="M184.418 42.0427H183.193V50.5894H184.418V42.0427ZM188.699 48.0693C188.699 47.5141 188.582 47.0429 188.35 46.6558C188.118 46.2613 187.811 45.9618 187.429 45.7573C187.047 45.5454 186.631 45.4395 186.182 45.4395C185.755 45.4395 185.377 45.5454 185.047 45.7573C184.718 45.9691 184.455 46.2723 184.261 46.6667C184.073 47.0539 183.98 47.5214 183.98 48.0693C183.98 48.6098 184.073 49.0773 184.261 49.4718C184.455 49.8663 184.718 50.1694 185.047 50.3813C185.377 50.5931 185.755 50.699 186.182 50.699C186.631 50.699 187.047 50.5968 187.429 50.3922C187.811 50.1804 188.118 49.8772 188.35 49.4828C188.582 49.0883 188.699 48.6171 188.699 48.0693ZM187.44 48.0693C187.44 48.4053 187.369 48.6938 187.227 48.9349C187.084 49.176 186.897 49.3586 186.665 49.4828C186.433 49.6069 186.174 49.669 185.89 49.669C185.65 49.669 185.418 49.6069 185.193 49.4828C184.968 49.3586 184.781 49.1796 184.631 48.9458C184.489 48.7048 184.418 48.4126 184.418 48.0693C184.418 47.7259 184.489 47.4374 184.631 47.2036C184.781 46.9626 184.968 46.7799 185.193 46.6558C185.418 46.5316 185.65 46.4695 185.89 46.4695C186.174 46.4695 186.433 46.5316 186.665 46.6558C186.897 46.7799 187.084 46.9626 187.227 47.2036C187.369 47.4447 187.44 47.7332 187.44 48.0693Z" fill="white"/>
<path d="M191.101 48.6171V45.5491H189.854V48.7486C189.854 49.3476 190.008 49.8224 190.315 50.1731C190.63 50.5237 191.075 50.699 191.652 50.699C192.011 50.699 192.319 50.626 192.573 50.4799C192.835 50.3265 193.049 50.1037 193.214 49.8115V50.5894H194.427V45.5491H193.214V48.6171C193.214 48.8436 193.165 49.0408 193.068 49.2088C192.97 49.3768 192.835 49.5083 192.663 49.6033C192.491 49.6983 192.292 49.7457 192.068 49.7457C191.738 49.7457 191.495 49.6471 191.337 49.4499C191.18 49.2527 191.101 48.9751 191.101 48.6171Z" fill="white"/>
<path d="M197.179 45.5491H195.977V50.5894H197.179V45.5491ZM198.718 46.8092L199.314 45.812C199.194 45.6733 199.051 45.5746 198.887 45.5162C198.722 45.4578 198.546 45.4285 198.359 45.4285C198.096 45.4285 197.842 45.5235 197.595 45.7134C197.355 45.8961 197.156 46.1444 196.999 46.4585C196.849 46.7653 196.774 47.1196 196.774 47.5214L197.179 47.7515C197.179 47.5104 197.205 47.3022 197.257 47.1269C197.317 46.9443 197.411 46.8019 197.538 46.6996C197.666 46.5973 197.831 46.5462 198.033 46.5462C198.183 46.5462 198.306 46.5681 198.404 46.6119C198.508 46.6558 198.613 46.7215 198.718 46.8092Z" fill="white"/>
<path d="M203.472 47.5214V50.5894H204.719V47.3789C204.719 46.7799 204.565 46.3088 204.258 45.9655C203.951 45.6148 203.505 45.4395 202.921 45.4395C202.569 45.4395 202.262 45.5125 202 45.6586C201.745 45.8047 201.535 46.0275 201.371 46.327V45.5491H200.146V50.5894H201.371V47.5214C201.371 47.2949 201.416 47.0977 201.506 46.9297C201.603 46.7544 201.738 46.6229 201.91 46.5352C202.082 46.4403 202.284 46.3928 202.517 46.3928C202.839 46.3928 203.078 46.4878 203.236 46.6777C203.393 46.8676 203.472 47.1488 203.472 47.5214Z" fill="white"/>
<path d="M207.032 49.0226C207.032 48.8618 207.07 48.7267 207.145 48.6171C207.227 48.5076 207.347 48.4235 207.504 48.3651C207.662 48.2994 207.868 48.2665 208.122 48.2665C208.414 48.2665 208.691 48.303 208.954 48.3761C209.216 48.4491 209.463 48.566 209.695 48.7267V48.124C209.628 48.0437 209.512 47.956 209.347 47.8611C209.182 47.7588 208.972 47.6711 208.718 47.5981C208.471 47.525 208.175 47.4885 207.83 47.4885C207.186 47.4885 206.688 47.6346 206.336 47.9268C205.984 48.2117 205.808 48.5989 205.808 49.0883C205.808 49.4316 205.89 49.7238 206.055 49.9649C206.22 50.2059 206.441 50.3886 206.718 50.5127C206.995 50.6369 207.295 50.699 207.617 50.699C207.916 50.699 208.208 50.6479 208.493 50.5456C208.785 50.436 209.025 50.2717 209.212 50.0525C209.407 49.8334 209.504 49.5631 209.504 49.2417L209.324 48.5843C209.324 48.8399 209.264 49.0591 209.145 49.2417C209.025 49.4243 208.864 49.5668 208.662 49.669C208.467 49.764 208.246 49.8115 207.999 49.8115C207.811 49.8115 207.643 49.7823 207.493 49.7238C207.351 49.6654 207.238 49.5777 207.156 49.4608C207.074 49.3367 207.032 49.1906 207.032 49.0226ZM206.65 46.864C206.733 46.8128 206.849 46.7507 206.999 46.6777C207.149 46.5973 207.328 46.5316 207.538 46.4804C207.755 46.422 207.984 46.3928 208.223 46.3928C208.381 46.3928 208.527 46.4074 208.662 46.4366C208.796 46.4658 208.912 46.5133 209.01 46.5791C209.115 46.6448 209.193 46.7288 209.246 46.8311C209.298 46.9333 209.324 47.0648 209.324 47.2255V50.5894H210.515V46.9954C210.515 46.6594 210.422 46.3745 210.234 46.1408C210.055 45.907 209.8 45.7317 209.47 45.6148C209.141 45.4906 208.766 45.4285 208.347 45.4285C207.86 45.4285 207.433 45.4943 207.066 45.6258C206.699 45.7573 206.396 45.8924 206.156 46.0312L206.65 46.864Z" fill="white"/>
<path d="M215.399 42.9193V50.5894H219.849V49.428H216.725V42.9193H215.399Z" fill="white"/>
<path d="M221.472 49.0226C221.472 48.8618 221.509 48.7267 221.584 48.6171C221.666 48.5076 221.786 48.4235 221.943 48.3651C222.101 48.2994 222.307 48.2665 222.561 48.2665C222.854 48.2665 223.131 48.303 223.393 48.3761C223.655 48.4491 223.902 48.566 224.134 48.7267V48.124C224.067 48.0437 223.951 47.956 223.786 47.8611C223.621 47.7588 223.412 47.6711 223.157 47.5981C222.91 47.525 222.614 47.4885 222.269 47.4885C221.625 47.4885 221.127 47.6346 220.775 47.9268C220.423 48.2117 220.247 48.5989 220.247 49.0883C220.247 49.4316 220.329 49.7238 220.494 49.9649C220.659 50.2059 220.88 50.3886 221.157 50.5127C221.434 50.6369 221.734 50.699 222.056 50.699C222.355 50.699 222.648 50.6479 222.932 50.5456C223.224 50.436 223.464 50.2717 223.651 50.0525C223.846 49.8334 223.943 49.5631 223.943 49.2417L223.764 48.5843C223.764 48.8399 223.704 49.0591 223.584 49.2417C223.464 49.4243 223.303 49.5668 223.101 49.669C222.906 49.764 222.685 49.8115 222.438 49.8115C222.251 49.8115 222.082 49.7823 221.932 49.7238C221.79 49.6654 221.678 49.5777 221.595 49.4608C221.513 49.3367 221.472 49.1906 221.472 49.0226ZM221.09 46.864C221.172 46.8128 221.288 46.7507 221.438 46.6777C221.588 46.5973 221.767 46.5316 221.977 46.4804C222.194 46.422 222.423 46.3928 222.663 46.3928C222.82 46.3928 222.966 46.4074 223.101 46.4366C223.236 46.4658 223.352 46.5133 223.449 46.5791C223.554 46.6448 223.632 46.7288 223.685 46.8311C223.737 46.9333 223.764 47.0648 223.764 47.2255V50.5894H224.955V46.9954C224.955 46.6594 224.861 46.3745 224.674 46.1408C224.494 45.907 224.239 45.7317 223.91 45.6148C223.58 45.4906 223.206 45.4285 222.786 45.4285C222.299 45.4285 221.872 45.4943 221.505 45.6258C221.138 45.7573 220.835 45.8924 220.595 46.0312L221.09 46.864Z" fill="white"/>
<path d="M227.549 42.0427H226.324V50.5894H227.549V42.0427ZM231.829 48.0693C231.829 47.5141 231.713 47.0429 231.481 46.6558C231.249 46.2613 230.942 45.9618 230.56 45.7573C230.178 45.5454 229.762 45.4395 229.313 45.4395C228.886 45.4395 228.508 45.5454 228.178 45.7573C227.848 45.9691 227.586 46.2723 227.392 46.6667C227.204 47.0539 227.111 47.5214 227.111 48.0693C227.111 48.6098 227.204 49.0773 227.392 49.4718C227.586 49.8663 227.848 50.1694 228.178 50.3813C228.508 50.5931 228.886 50.699 229.313 50.699C229.762 50.699 230.178 50.5968 230.56 50.3922C230.942 50.1804 231.249 49.8772 231.481 49.4828C231.713 49.0883 231.829 48.6171 231.829 48.0693ZM230.571 48.0693C230.571 48.4053 230.5 48.6938 230.358 48.9349C230.215 49.176 230.028 49.3586 229.796 49.4828C229.564 49.6069 229.305 49.669 229.021 49.669C228.781 49.669 228.549 49.6069 228.324 49.4828C228.099 49.3586 227.912 49.1796 227.762 48.9458C227.62 48.7048 227.549 48.4126 227.549 48.0693C227.549 47.7259 227.62 47.4374 227.762 47.2036C227.912 46.9626 228.099 46.7799 228.324 46.6558C228.549 46.5316 228.781 46.4695 229.021 46.4695C229.305 46.4695 229.564 46.5316 229.796 46.6558C230.028 46.7799 230.215 46.9626 230.358 47.2036C230.5 47.4447 230.571 47.7332 230.571 48.0693Z" fill="white"/>
<path d="M233.221 48.9239L232.513 49.6252C232.663 49.8151 232.85 49.9978 233.075 50.1731C233.3 50.3411 233.558 50.4799 233.85 50.5894C234.142 50.6917 234.468 50.7429 234.828 50.7429C235.39 50.7429 235.835 50.6004 236.165 50.3155C236.502 50.0233 236.67 49.6398 236.67 49.165C236.67 48.8582 236.599 48.6098 236.457 48.4199C236.315 48.23 236.124 48.0693 235.884 47.9378C235.644 47.8063 235.378 47.6858 235.086 47.5762C234.876 47.4958 234.685 47.4191 234.513 47.3461C234.348 47.273 234.214 47.1927 234.109 47.105C234.011 47.0101 233.963 46.9041 233.963 46.7873C233.963 46.6485 234.019 46.5425 234.131 46.4695C234.244 46.3964 234.39 46.3599 234.569 46.3599C234.824 46.3599 235.071 46.422 235.311 46.5462C235.551 46.6704 235.753 46.8311 235.918 47.0283L236.592 46.327C236.449 46.159 236.277 46.0093 236.075 45.8778C235.873 45.7463 235.644 45.6404 235.39 45.56C235.142 45.4797 234.876 45.4395 234.592 45.4395C234.277 45.4395 233.981 45.4906 233.704 45.5929C233.435 45.6879 233.217 45.8376 233.053 46.0422C232.895 46.2467 232.817 46.5024 232.817 46.8092C232.817 47.1087 232.888 47.357 233.03 47.5543C233.18 47.7515 233.367 47.9122 233.592 48.0364C233.824 48.1533 234.056 48.2555 234.289 48.3432C234.521 48.4235 234.723 48.5039 234.895 48.5843C235.067 48.6573 235.202 48.7486 235.3 48.8582C235.397 48.9605 235.446 49.0846 235.446 49.2307C235.446 49.3988 235.382 49.5302 235.255 49.6252C235.135 49.7202 234.966 49.7676 234.749 49.7676C234.577 49.7676 234.405 49.7348 234.232 49.669C234.06 49.6033 233.892 49.5083 233.727 49.3841C233.562 49.26 233.393 49.1066 233.221 48.9239Z" fill="white"/>
<path d="M42.3726 4.74707C53.3824 12.3705 55.4879 28.1372 47.2259 38.5302C39.1449 49.0577 23.1402 51.067 12.8672 42.5049C23.2608 50.0042 38.5366 48.0052 46.2978 37.8243C54.308 27.7519 52.3861 12.8101 42.3726 4.74707Z" fill="white"/>
<path d="M3.03694 31.1212C-0.458197 20.7359 4.88807 8.50682 14.4558 3.17713C17.6205 1.36436 21.1891 0.267906 24.7603 0.11792C21.3726 1.22213 18.2315 2.72717 15.4574 4.70802C6.92275 10.6609 2.40765 20.8626 3.03694 31.1212Z" fill="white"/>
<path d="M47.7842 21.0773C47.9809 29.443 42.5481 37.5241 34.6847 40.6816C22.3586 45.9079 7.7724 38.2379 5.3182 25.2227C2.59394 12.3161 13.0793 -0.236257 26.4516 0.0378561C22.2695 0.0895756 18.1162 1.34636 14.663 3.67632C3.67945 10.9248 2.11673 26.6268 11.5324 35.7915C24.978 48.8688 47.4643 39.6472 47.7842 21.0773Z" fill="white"/>
<path d="M49.5122 17.2865C52.0398 25.1065 49.8687 34.1884 44.1554 40.175C27.8491 57.0872 -0.520957 43.9453 2.21904 20.7827C3.36223 11.3827 10.6619 3.13088 19.9936 0.912109C10.9529 3.57825 4.10164 11.6387 3.12888 20.8913C1.66055 33.9557 11.5036 45.6934 24.805 46.6606C41.0772 47.7984 53.5133 32.8282 49.5122 17.2865Z" fill="white"/>
<path d="M52.371 23.2676C52.8666 31.4807 48.4275 39.5851 41.3612 43.9089C35.2336 47.7491 27.3361 48.5869 20.4979 46.2001C5.84094 41.1109 -0.367972 23.9141 7.8861 10.8938C12.2701 3.92456 20.4875 -0.456083 28.8176 0.0378381C20.7995 0.42832 13.3058 4.85034 9.34131 11.7549C1.67195 24.9692 9.29412 41.8815 24.4388 44.9795C38.54 47.881 51.6788 37.3612 52.371 23.2676Z" fill="white"/>
<path d="M47.5603 12.7223C51.6113 20.7595 50.1744 30.8784 44.0494 37.5218C30.2996 52.4713 5.21752 43.6893 4.10055 23.5368C3.67316 15.7453 7.66385 7.95372 14.3028 3.7153C15.2388 3.1076 16.2221 2.58265 17.2289 2.10425C15.2283 3.07916 13.3588 4.31784 11.7227 5.8177C4.16085 12.655 2.22581 24.0281 7.15256 32.9032C14.4627 46.3735 33.4119 48.6311 43.782 37.2838C49.8808 30.8086 51.4251 20.7 47.5603 12.7223Z" fill="white"/>
<path d="M51.87 25.1067C52.3157 40.8966 37.0688 53.3015 21.4075 50.1234C-1.15222 45.6134 -6.98881 16.6583 12.2043 4.07493C16.4257 1.36741 21.4573 -0.0729804 26.4523 0.0382165C23.9613 0.102866 21.4809 0.488175 19.108 1.23294C5.48408 5.50238 -1.90474 20.1338 2.94335 33.4025C5.81445 41.4138 13.1167 47.6434 21.5779 49.2648C37.1133 52.3576 51.5894 40.6949 51.87 25.1067Z" fill="white"/>
<path d="M46.7156 12.0804C51.0891 19.9935 50.0481 30.2184 44.1644 37.1178C35.1342 48.1004 17.5143 48.0564 8.58637 36.9678C1.16609 28.1031 1.89763 14.5552 10.2933 6.56449C11.9006 5.00515 13.7491 3.70182 15.7366 2.65967C13.7596 3.71733 11.9242 5.03618 10.3326 6.60587C2.0733 14.6224 1.32341 28.0436 8.73844 36.8488C17.6139 47.7798 35.0634 47.8858 44.0437 37.0221C49.8987 30.2081 50.9921 19.9521 46.7156 12.0804Z" fill="white"/>
<path d="M42.8985 36.2025C43.5922 36.2025 44.1545 35.6479 44.1545 34.9638C44.1545 34.2797 43.5922 33.7251 42.8985 33.7251C42.2049 33.7251 41.6426 34.2797 41.6426 34.9638C41.6426 35.6479 42.2049 36.2025 42.8985 36.2025Z" fill="white"/>
<path d="M1.25594 13.0743C1.94958 13.0743 2.51188 12.5197 2.51188 11.8356C2.51188 11.1515 1.94958 10.5969 1.25594 10.5969C0.562304 10.5969 0 11.1515 0 11.8356C0 12.5197 0.562304 13.0743 1.25594 13.0743Z" fill="white"/>
<path d="M17.9351 50.3582C18.691 50.3582 19.3038 49.7538 19.3038 49.0083C19.3038 48.2628 18.691 47.6584 17.9351 47.6584C17.1792 47.6584 16.5664 48.2628 16.5664 49.0083C16.5664 49.7538 17.1792 50.3582 17.9351 50.3582Z" fill="white"/>
<path d="M39.5969 12.9057C38.986 12.9057 38.4931 13.3918 38.4931 13.9944C38.4931 14.0306 38.4957 14.0693 38.4983 14.103C38.2886 14.4753 38.1181 14.8658 37.9897 15.2692C38.5639 15.1736 39.1774 15.0986 39.8329 15.0546C40.3259 14.9512 40.6956 14.5141 40.6956 13.9944C40.6956 13.3918 40.2026 12.9057 39.5969 12.9057ZM38.6163 11.804C38.6163 11.2015 38.1234 10.7153 37.5124 10.7153C36.9041 10.7153 36.4112 11.2015 36.4112 11.804C36.4112 11.9488 36.44 12.0885 36.4925 12.2152C35.8553 13.7926 34.9612 15.2641 33.8312 16.5648C34.5234 16.2364 35.3362 15.9131 36.2906 15.6468C36.8674 14.765 37.3551 13.8314 37.7589 12.8643C38.2492 12.7557 38.6163 12.3212 38.6163 11.804ZM35.15 9.11202C35.15 8.51208 34.6571 8.02592 34.0462 8.02592C33.4378 8.02592 32.9449 8.51208 32.9449 9.11202C32.9449 9.23356 32.9659 9.34994 33.0026 9.45855C32.8872 9.61888 32.7509 9.76369 32.5936 9.89299C32.3104 10.1231 31.9853 10.2835 31.6365 10.3611C31.7519 9.9473 31.8463 9.52579 31.9354 9.10169C32.3209 8.9336 32.5909 8.55087 32.5909 8.10867C32.5909 7.50873 32.098 7.02256 31.4871 7.02256C30.8788 7.02256 30.3858 7.50873 30.3858 8.10867C30.3858 8.33365 30.454 8.53794 30.572 8.7112C30.142 10.8834 29.3213 12.9496 28.1335 14.84V8.34141C28.3643 8.14229 28.5111 7.85007 28.5111 7.52424C28.5111 6.92171 28.0182 6.43555 27.4072 6.43555C26.7989 6.43555 26.306 6.92171 26.306 7.52424C26.306 7.86559 26.4659 8.17073 26.715 8.36985V17.5837C25.4276 16.7122 24.0642 15.9907 22.6404 15.427C22.6352 14.871 22.5539 14.3305 22.4045 13.8107C24.2189 12.7195 25.2965 10.7334 25.2336 8.65431C25.3699 8.47329 25.4512 8.2509 25.4512 8.00782C25.4512 7.40528 24.9583 6.91912 24.35 6.91912C23.7391 6.91912 23.2461 7.40528 23.2461 8.00782C23.2461 8.42157 23.4795 8.77844 23.8203 8.96204C23.7784 10.3714 23.0521 11.6928 21.8643 12.4945C21.4317 11.7083 20.8312 11.0231 20.1102 10.48C20.084 9.90075 19.6041 9.44045 19.0116 9.44045C18.4006 9.44045 17.9077 9.92661 17.9077 10.5291C17.9077 11.1291 18.4006 11.6153 19.0116 11.6153C19.0955 11.6153 19.1741 11.6075 19.2502 11.5894C20.3068 12.3807 21.0253 13.5754 21.1878 14.9124C19.6356 14.4262 18.0231 14.1185 16.366 13.9918C16.1719 13.6763 15.8232 13.4616 15.4221 13.4616C14.8111 13.4616 14.3182 13.9478 14.3182 14.5477C14.3182 15.1503 14.8111 15.6364 15.4221 15.6364C15.6921 15.6364 15.9412 15.5382 16.1326 15.3778C16.518 15.4037 16.9009 15.4399 17.2784 15.4864C16.6465 16.195 15.8101 16.676 14.9003 16.8803C14.6984 16.645 14.3968 16.495 14.0586 16.495C13.4477 16.495 12.9547 16.9812 12.9547 17.5811C12.9547 18.181 13.4477 18.6698 14.0586 18.6698C14.3837 18.6698 14.6748 18.5276 14.8767 18.3078C16.4656 18.044 17.9261 17.1466 18.849 15.7476C20.868 16.1666 22.7978 16.8958 24.5912 17.9147C23.7994 18.1112 22.9787 18.2147 22.1449 18.2147V19.6111C23.524 19.6111 24.8665 19.3706 26.1461 18.8974C26.3375 19.0318 26.5262 19.1663 26.7124 19.3059V22.8927C27.3967 22.0729 28.068 21.2377 28.7995 20.4283C28.5793 20.5369 28.3564 20.6403 28.1283 20.736V17.294C29.4445 15.6132 30.4645 13.7694 31.1724 11.817C32.022 11.8066 32.8348 11.5144 33.4982 10.9713C33.7761 10.7412 34.0173 10.4774 34.2113 10.1904C34.7462 10.105 35.15 9.65766 35.15 9.11202ZM32.3445 14.9098C32.3445 14.3564 31.8935 13.9116 31.3324 13.9116C30.7713 13.9116 30.3203 14.3564 30.3203 14.9098C30.3203 15.1529 30.4068 15.3752 30.5536 15.5485C30.5799 16.5001 30.7267 17.4363 30.9889 18.3414C31.3717 18.0362 31.7807 17.7388 32.2212 17.4595C32.0849 16.8777 32.0036 16.2855 31.9748 15.683C32.2003 15.4994 32.3445 15.2201 32.3445 14.9098ZM23.2304 21.0489C22.6693 21.0489 22.2157 21.4937 22.2157 22.0471C22.2157 22.6005 22.6693 23.0453 23.2304 23.0453C23.3877 23.0453 23.5372 23.0091 23.6709 22.9444C24.3657 23.2728 25.0186 23.6762 25.6164 24.1546C25.9337 23.8055 26.2404 23.4538 26.542 23.0944C25.8078 22.5048 25.0029 22.0135 24.1428 21.623C23.9829 21.2816 23.6342 21.0489 23.2304 21.0489ZM20.5612 23.8624C20.9047 23.6168 21.1852 23.2909 21.3845 22.9056C21.7044 22.272 21.7594 21.5557 21.5313 20.886L20.1889 21.323C20.2937 21.6411 20.2675 21.9798 20.1154 22.2798C20.021 22.466 19.8821 22.6238 19.7169 22.7401C18.8752 21.2661 18.7232 19.4301 19.4809 17.7699L18.1883 17.1984C17.0293 19.7533 17.5773 22.6393 19.3446 24.615C17.6586 24.1184 16.1064 23.1901 14.8688 21.8867C14.8714 21.8583 14.8741 21.8299 14.8741 21.8014C14.8741 21.7988 14.8741 21.7988 14.8741 21.7988C14.8741 21.2816 14.507 20.8498 14.0167 20.7412C13.938 20.7256 13.8567 20.7153 13.7728 20.7153C13.7413 20.7153 13.7099 20.7179 13.6784 20.7205C13.1147 20.767 12.6689 21.2325 12.6689 21.8014C12.6689 22.4039 13.1645 22.8901 13.7728 22.8901C13.7781 22.8901 13.7885 22.8901 13.7938 22.8875C13.82 22.8875 13.8488 22.8849 13.8724 22.8823C15.2306 24.3098 16.9507 25.3675 18.9041 25.9467C20.0001 26.2726 21.1197 26.4355 22.2314 26.4355C22.5382 26.4355 22.8476 26.4225 23.1543 26.3967C23.9252 25.8381 24.5964 25.2252 25.2179 24.5787C24.2346 24.8813 23.2251 25.0313 22.2262 25.0313C21.5811 24.7365 21.0253 24.3382 20.5612 23.8624Z" fill="white"/>
<path d="M39.1096 22.1277C39.9224 22.1277 40.73 21.9932 41.4982 21.7346C41.6687 21.8406 41.8706 21.9053 42.0882 21.9053C42.6965 21.9053 43.1894 21.4191 43.1894 20.8192C43.1894 20.2166 42.6965 19.7305 42.0882 19.7305C41.6293 19.7305 41.236 20.0072 41.0682 20.4028C40.4888 20.6019 39.8805 20.7157 39.2617 20.7312C39.7651 20.108 40.2266 19.4486 40.6409 18.7556C40.7169 18.6288 40.7903 18.497 40.8637 18.3651C40.8873 18.3625 40.9109 18.3599 40.9345 18.3573C41.4537 18.2668 41.847 17.822 41.847 17.2867C41.847 16.6868 41.3514 16.2006 40.7431 16.2006C40.6173 16.2006 40.4914 16.2239 40.376 16.2653C40.321 16.2834 40.2633 16.3066 40.2108 16.3377C39.8726 16.5213 39.6392 16.8781 39.6392 17.2893C39.6392 17.3488 39.6445 17.4083 39.655 17.4652C39.6602 17.5014 39.6707 17.535 39.6786 17.5686C39.537 17.8272 39.3902 18.0832 39.2328 18.334C38.9785 17.2479 39.0991 16.0972 39.5816 15.0835H39.5973C39.6786 15.0835 39.7572 15.0757 39.8333 15.0576C39.1804 15.1016 38.5668 15.1766 37.99 15.2723C37.5207 16.7333 37.5941 18.334 38.2286 19.7589C37.0068 21.3079 35.4886 22.6371 33.7292 23.6586C33.037 23.7336 32.3579 23.8525 31.6841 24.0154C31.7995 23.8473 31.941 23.6948 32.1036 23.5629C32.5756 23.175 33.1734 22.9914 33.7843 23.0483L33.9128 21.6596C32.9269 21.5691 31.9594 21.8639 31.1964 22.4923C30.5461 23.025 30.1109 23.7413 29.9405 24.543C29.3217 24.768 28.716 25.0291 28.1286 25.3265V22.2544C29.9195 21.5588 31.574 20.5761 33.0397 19.3297C33.4775 18.9599 33.8892 18.5694 34.2825 18.1634C34.9013 18.3082 35.5279 18.3832 36.1651 18.3832C36.3486 18.3832 36.5348 18.378 36.7236 18.3651L36.6266 16.9712C36.2018 16.9997 35.777 16.9893 35.3601 16.9376C35.6905 16.5239 35.9999 16.0972 36.2857 15.655C35.3313 15.9187 34.5185 16.2446 33.8263 16.573C33.3779 17.0928 32.8928 17.5867 32.3684 18.0496C32.3107 17.8556 32.2583 17.6643 32.2137 17.4677C31.7759 17.747 31.3642 18.0418 30.9814 18.3496C31.0469 18.5668 31.1151 18.784 31.1911 18.9961C30.436 19.5469 29.6363 20.0279 28.7946 20.4339C28.0631 21.2433 27.3919 22.0785 26.7075 22.8983V23.2396C26.6525 23.1931 26.5948 23.1465 26.5371 23.1026C26.2356 23.4594 25.9288 23.8137 25.6115 24.1628C25.698 24.2275 25.7793 24.2973 25.8606 24.3671C25.643 24.4499 25.4254 24.5249 25.2077 24.5921C24.5863 25.236 23.9151 25.8515 23.1442 26.41C24.3608 26.3144 25.5617 26.0196 26.7075 25.536V29.1434H21.099V33.6611C20.3124 33.9352 19.7461 34.6722 19.7461 35.5385C19.7461 36.6376 20.6507 37.5297 21.7677 37.5297C22.882 37.5297 23.7866 36.6376 23.7866 35.5385C23.7866 34.7007 23.257 33.9818 22.5149 33.6896V30.5373H26.7101V35.0627C25.9314 35.3394 25.3729 36.0738 25.3729 36.9375C25.3729 38.0366 26.2775 38.9287 27.3919 38.9287C28.5088 38.9287 29.4134 38.0366 29.4134 36.9375C29.4134 36.0945 28.8785 35.3756 28.1286 35.0834V30.5373H32.3239V33.6896C31.5792 33.9844 31.0496 34.7007 31.0496 35.5385C31.0496 36.6376 31.9541 37.5297 33.0711 37.5297C34.1855 37.5297 35.0901 36.6376 35.0901 35.5385C35.0901 34.6722 34.5237 33.9326 33.7397 33.6611V29.1434H28.1313V26.9272C31.9332 24.755 36.4955 24.4163 40.5307 25.8334C40.6645 26.2859 41.0866 26.6143 41.5848 26.6143C42.1957 26.6143 42.6886 26.1282 42.6886 25.5256C42.6886 24.9257 42.1957 24.4395 41.5848 24.4395C41.417 24.4395 41.257 24.4757 41.1154 24.543C39.5973 23.9922 37.9979 23.6663 36.3539 23.5887C36.9622 23.1181 37.5338 22.6087 38.0739 22.0682C38.4174 22.1044 38.7635 22.1277 39.1096 22.1277ZM23.0603 35.5282C23.0603 36.229 22.4835 36.7979 21.7729 36.7979C21.0623 36.7979 20.4855 36.2264 20.4855 35.5282C20.4855 34.83 21.0623 34.2585 21.7729 34.2585C22.4835 34.2585 23.0603 34.8274 23.0603 35.5282ZM28.6845 36.9272C28.6845 37.628 28.1077 38.1969 27.3971 38.1969C26.6865 38.1969 26.1097 37.6254 26.1097 36.9272C26.1097 36.2859 26.5922 35.7584 27.2162 35.6704H27.5754C28.2021 35.7584 28.6845 36.2885 28.6845 36.9272ZM34.3612 35.5282C34.3612 36.229 33.7843 36.7979 33.0737 36.7979C32.3632 36.7979 31.7863 36.2264 31.7863 35.5282C31.7863 34.83 32.3632 34.2585 33.0737 34.2585C33.7843 34.2585 34.3612 34.8274 34.3612 35.5282Z" fill="white"/>
</svg>
