<svg width="200" height="44" viewBox="0 0 200 44" fill="none" xmlns="http://www.w3.org/2000/svg">
<path d="M15.6247 1.15356C15.6247 1.15356 -0.232426 4.36439 1.10112 21.4928C2.43466 38.6212 24.517 43.6165 34.8156 33.3399C34.8156 33.3399 16.9582 42.2602 7.69612 28.9147C-1.56597 15.5693 8.14063 3.65021 15.6247 1.15356Z" fill="#6BA43A"/>
<path d="M33.5667 3.67017C42.2888 9.56769 43.9567 21.7648 37.4116 29.8049C31.0098 37.949 18.3307 39.5034 10.1924 32.8797C18.4263 38.6812 30.5278 37.1348 36.6763 29.2588C43.022 21.4668 41.4994 9.90777 33.5667 3.67017Z" fill="#C89211"/>
<path d="M2.40533 24.0755C-0.363533 16.0414 3.87181 6.58098 11.4535 2.45792C13.9606 1.05756 16.7876 0.209339 19.6167 0.0913086C16.933 0.945529 14.4446 2.10983 12.2469 3.64222C5.48369 8.24741 1.90681 16.1374 2.40533 24.0755Z" fill="#4A8B2C"/>
<path d="M37.8543 16.3055C38.0101 22.7772 33.7062 29.0288 27.4768 31.4714C17.712 35.5144 6.15674 29.5809 4.21251 19.5123C2.05434 9.52774 10.3609 -0.182765 20.9545 0.0292896C17.6435 0.0692999 14.3512 1.03955 11.6155 2.84402C2.91428 8.45146 1.67629 20.6006 9.1354 27.6884C19.7871 37.803 37.6009 30.6712 37.8543 16.3055Z" fill="#6BA43A"/>
<path d="M39.2236 13.3706C41.226 19.4201 39.5061 26.446 34.98 31.0772C22.0621 44.1625 -0.412864 33.9959 1.75777 16.0773C2.66342 8.80541 8.44625 2.42176 15.8389 0.705322C8.67682 2.76785 3.24918 9.00346 2.47855 16.1613C1.31534 26.2679 9.11302 35.3483 19.6505 36.0964C32.5414 36.9747 42.3934 25.3937 39.2236 13.3706Z" fill="#4A8B2C"/>
<path d="M41.4872 17.9999C41.8798 24.3535 38.3631 30.6232 32.7652 33.968C27.9108 36.9388 21.6544 37.587 16.2371 35.7405C4.62577 31.8035 -0.292957 18.5 6.24596 8.42744C9.71899 3.03605 16.2288 -0.352827 22.828 0.0292716C16.476 0.331349 10.5395 3.75223 7.39671 9.09361C1.321 19.3162 7.35933 32.3996 19.357 34.7962C30.5301 37.0408 40.9388 28.9007 41.4872 17.9999Z" fill="#00783F"/>
<path d="M37.6774 9.8418C40.8866 16.0594 39.7483 23.8874 34.8961 29.0267C24.0034 40.5917 4.13323 33.798 3.24836 18.208C2.90978 12.1804 6.07123 6.15285 11.3306 2.87401C12.0722 2.40389 12.8511 1.99778 13.6487 1.62769C12.0639 2.38188 10.5828 3.34013 9.28668 4.50043C3.29613 9.78779 1.76318 18.5881 5.66618 25.4538C11.4573 35.8745 26.469 37.621 34.6842 28.8427C39.5157 23.8314 40.7391 16.0134 37.6774 9.8418Z" fill="#6BA43A"/>
<path d="M33.5677 3.67017C39.7098 8.0853 42.5306 15.9973 40.5012 23.1212C35.9585 39.1053 13.7702 41.87 5.15201 27.5283C1.82231 21.9829 1.8057 14.813 5.14371 9.27361C5.61107 8.48541 6.1449 7.73922 6.71404 7.01903C5.58822 8.4674 4.66388 10.0598 4.0158 11.7583C0.981063 19.5543 3.91402 28.5746 11.0449 33.2838C21.734 40.4757 36.8309 35.1743 40.2271 23.0512C42.2959 16.0534 39.5582 8.10731 33.5677 3.67017Z" fill="#4A8B2C"/>
<path d="M41.0902 19.4203C41.4433 31.6354 29.3646 41.2319 16.9576 38.7733C-0.914299 35.2844 -5.53807 12.8846 9.66679 3.15006C13.011 1.05552 16.9971 -0.0587645 20.9541 0.0292582C18.9808 0.0792711 17.0158 0.377348 15.136 0.953497C4.34509 4.25635 -1.51045 15.5733 2.33231 25.8379C4.60681 32.0355 10.3917 36.8548 17.0947 38.1091C29.3999 40.5017 40.8679 31.4794 41.0902 19.4203Z" fill="#C89211"/>
<path d="M37.0087 9.34354C40.4734 15.4651 39.6488 23.3752 34.9876 28.7125C27.8339 37.2087 13.8753 37.1767 6.80255 28.5985C0.924166 21.7387 1.50577 11.258 8.15478 5.07644C9.42809 3.87013 10.8925 2.86187 12.467 2.05566C10.9008 2.87388 9.44678 3.89414 8.18594 5.10845C1.64287 11.3101 1.0488 21.6927 6.92302 28.5045C13.9542 36.9607 27.7778 37.0427 34.8921 28.6385C39.5304 23.3672 40.3966 15.4331 37.0087 9.34354Z" fill="#C89211"/>
<path d="M33.9842 28.0063C34.5337 28.0063 34.9792 27.5773 34.9792 27.0481C34.9792 26.5189 34.5337 26.0898 33.9842 26.0898C33.4347 26.0898 32.9893 26.5189 32.9893 27.0481C32.9893 27.5773 33.4347 28.0063 33.9842 28.0063Z" fill="#6BA43A"/>
<path d="M0.994963 10.1138C1.54447 10.1138 1.98993 9.68474 1.98993 9.15551C1.98993 8.62629 1.54447 8.19727 0.994963 8.19727C0.44546 8.19727 0 8.62629 0 9.15551C0 9.68474 0.44546 10.1138 0.994963 10.1138Z" fill="#C89211"/>
<path d="M14.2073 38.9572C14.8062 38.9572 15.2916 38.4897 15.2916 37.9129C15.2916 37.3362 14.8062 36.8687 14.2073 36.8687C13.6085 36.8687 13.123 37.3362 13.123 37.9129C13.123 38.4897 13.6085 38.9572 14.2073 38.9572Z" fill="#00783F"/>
<path d="M31.3696 9.98185C30.8856 9.98185 30.4951 10.358 30.4951 10.8241C30.4951 10.8521 30.4972 10.8821 30.4993 10.9081C30.3331 11.1962 30.1981 11.4982 30.0963 11.8103C30.5512 11.7363 31.0373 11.6783 31.5566 11.6443C31.9471 11.5643 32.2399 11.2262 32.2399 10.8241C32.2399 10.358 31.8494 9.98185 31.3696 9.98185ZM30.5928 9.13163C30.5928 8.66551 30.2022 8.28942 29.7183 8.28942C29.2364 8.28942 28.8459 8.66551 28.8459 9.13163C28.8459 9.24366 28.8687 9.35169 28.9102 9.44972C28.4055 10.67 27.6972 11.8083 26.8019 12.8146C27.3503 12.5605 27.9942 12.3105 28.7503 12.1044C29.2073 11.4222 29.5936 10.7 29.9135 9.95185C30.3019 9.86582 30.5928 9.53174 30.5928 9.13163ZM27.8467 7.0491C27.8467 6.58498 27.4562 6.20888 26.9723 6.20888C26.4903 6.20888 26.0998 6.58498 26.0998 7.0491C26.0998 7.14312 26.1165 7.23314 26.1455 7.31717C26.0541 7.4412 25.9461 7.55323 25.8215 7.65325C25.5972 7.8313 25.3396 7.95533 25.0633 8.01535C25.1547 7.69526 25.2295 7.36918 25.3001 7.0411C25.6055 6.91106 25.8194 6.61499 25.8194 6.2729C25.8194 5.80878 25.4289 5.43268 24.9449 5.43268C24.463 5.43268 24.0725 5.80878 24.0725 6.2729C24.0725 6.44694 24.1265 6.60498 24.22 6.73902C23.8793 8.41945 23.2292 10.0179 22.2882 11.4802V6.45094C22.471 6.2969 22.5874 6.07084 22.5874 5.81878C22.5874 5.35266 22.1968 4.97656 21.7129 4.97656C21.231 4.97656 20.8405 5.35266 20.8405 5.81878C20.8405 6.08285 20.9672 6.31891 21.1645 6.47295V13.6008C20.1446 12.9266 19.0645 12.3685 17.9366 11.9324C17.9324 11.5022 17.868 11.0841 17.7496 10.682C19.187 9.83782 20.0407 8.30142 19.9909 6.693C20.0989 6.55297 20.1633 6.38092 20.1633 6.19288C20.1633 5.72676 19.7728 5.35066 19.2909 5.35066C18.8069 5.35066 18.4164 5.72676 18.4164 6.19288C18.4164 6.51296 18.6013 6.78903 18.8713 6.93107C18.8381 8.02135 18.2627 9.04361 17.3217 9.66377C16.979 9.05561 16.5033 8.52548 15.9321 8.10537C15.9113 7.65725 15.5312 7.30116 15.0618 7.30116C14.5778 7.30116 14.1873 7.67726 14.1873 8.14338C14.1873 8.6075 14.5778 8.9836 15.0618 8.9836C15.1282 8.9836 15.1906 8.97759 15.2508 8.96359C16.0879 9.57575 16.657 10.5 16.7858 11.5343C15.5561 11.1582 14.2787 10.9201 12.9659 10.8221C12.8122 10.578 12.5359 10.412 12.2181 10.412C11.7342 10.412 11.3436 10.7881 11.3436 11.2522C11.3436 11.7183 11.7342 12.0944 12.2181 12.0944C12.4321 12.0944 12.6294 12.0184 12.781 11.8943C13.0864 11.9144 13.3897 11.9424 13.6888 11.9784C13.1882 12.5265 12.5256 12.8986 11.8048 13.0566C11.6448 12.8746 11.406 12.7586 11.138 12.7586C10.654 12.7586 10.2635 13.1347 10.2635 13.5988C10.2635 14.0629 10.654 14.441 11.138 14.441C11.3956 14.441 11.6261 14.331 11.7861 14.1609C13.0448 13.9569 14.2018 13.2627 14.933 12.1804C16.5324 12.5045 18.0612 13.0686 19.482 13.8569C18.8547 14.0089 18.2045 14.0889 17.544 14.0889V15.1692C18.6366 15.1692 19.7001 14.9831 20.7137 14.617C20.8654 14.7211 21.0149 14.8251 21.1624 14.9331V17.7078C21.7046 17.0737 22.2363 16.4275 22.8158 15.8014C22.6414 15.8854 22.4648 15.9654 22.2841 16.0394V13.3767C23.3268 12.0764 24.1348 10.65 24.6957 9.13964C25.3687 9.13163 26.0126 8.90558 26.5381 8.48547C26.7583 8.30742 26.9494 8.10337 27.1031 7.88131C27.5269 7.81529 27.8467 7.46921 27.8467 7.0491ZM25.6242 11.5343C25.6242 11.1061 25.2669 10.7621 24.8224 10.7621C24.3779 10.7621 24.0206 11.1061 24.0206 11.5343C24.0206 11.7223 24.0891 11.8943 24.2055 12.0284C24.2262 12.7646 24.3426 13.4888 24.5503 14.1889C24.8535 13.9529 25.1776 13.7228 25.5265 13.5068C25.4185 13.0566 25.3541 12.5985 25.3313 12.1324C25.5099 11.9904 25.6242 11.7743 25.6242 11.5343ZM18.4039 16.2815C17.9594 16.2815 17.6001 16.6256 17.6001 17.0537C17.6001 17.4818 17.9594 17.8259 18.4039 17.8259C18.5286 17.8259 18.647 17.7979 18.7529 17.7479C19.3034 18.0019 19.8206 18.314 20.2942 18.6841C20.5455 18.414 20.7885 18.142 21.0274 17.8639C20.4458 17.4078 19.8081 17.0277 19.1268 16.7256C19.0001 16.4635 18.7238 16.2815 18.4039 16.2815ZM16.2894 18.46C16.5615 18.27 16.7837 18.0179 16.9416 17.7198C17.195 17.2297 17.2386 16.6756 17.0579 16.1574L15.9944 16.4955C16.0775 16.7416 16.0567 17.0037 15.9363 17.2357C15.8615 17.3798 15.7514 17.5018 15.6205 17.5918C14.9538 16.4515 14.8333 15.0312 15.4336 13.7468L14.4095 13.3047C13.4914 15.2812 13.9256 17.5138 15.3256 19.0422C13.99 18.6581 12.7603 17.9399 11.7799 16.9316C11.7819 16.9096 11.784 16.8876 11.784 16.8656C11.784 16.8636 11.784 16.8636 11.784 16.8636C11.784 16.4635 11.4932 16.1294 11.1048 16.0454C11.0425 16.0334 10.9781 16.0254 10.9116 16.0254C10.8867 16.0254 10.8617 16.0274 10.8368 16.0294C10.3902 16.0654 10.0371 16.4255 10.0371 16.8656C10.0371 17.3317 10.4297 17.7078 10.9116 17.7078C10.9158 17.7078 10.9241 17.7078 10.9282 17.7058C10.949 17.7058 10.9718 17.7038 10.9905 17.7018C12.0665 18.8061 13.4291 19.6243 14.9766 20.0725C15.8449 20.3245 16.7318 20.4506 17.6125 20.4506C17.8556 20.4506 18.1007 20.4405 18.3437 20.4205C18.9544 19.9884 19.4861 19.5143 19.9784 19.0142C19.1995 19.2482 18.3998 19.3643 17.6084 19.3643C17.0974 19.1362 16.657 18.8261 16.2894 18.46Z" fill="#C89211"/>
<path d="M30.9821 17.1176C31.626 17.1176 32.2658 17.0136 32.8744 16.8135C33.0094 16.8955 33.1693 16.9456 33.3417 16.9456C33.8236 16.9456 34.2142 16.5695 34.2142 16.1053C34.2142 15.6392 33.8236 15.2631 33.3417 15.2631C32.9782 15.2631 32.6667 15.4772 32.5337 15.7833C32.0747 15.9373 31.5928 16.0253 31.1026 16.0373C31.5014 15.5552 31.867 15.0451 32.1951 14.5089C32.2554 14.4109 32.3135 14.3089 32.3717 14.2069C32.3904 14.2049 32.4091 14.2029 32.4278 14.2009C32.8391 14.1308 33.1506 13.7867 33.1506 13.3726C33.1506 12.9085 32.7581 12.5324 32.2762 12.5324C32.1765 12.5324 32.0768 12.5504 31.9854 12.5824C31.9417 12.5964 31.896 12.6144 31.8545 12.6384C31.5865 12.7805 31.4017 13.0566 31.4017 13.3746C31.4017 13.4207 31.4058 13.4667 31.4141 13.5107C31.4183 13.5367 31.4266 13.5647 31.4328 13.5907C31.3207 13.7907 31.2043 13.9888 31.0797 14.1828C30.8782 13.3426 30.9738 12.4524 31.356 11.6682H31.3684C31.4328 11.6682 31.4951 11.6622 31.5554 11.6482C31.0382 11.6822 30.5521 11.7402 30.0951 11.8142C29.7233 12.9445 29.7815 14.1828 30.2842 15.2851C29.3162 16.4834 28.1135 17.5117 26.7197 18.3019C26.1714 18.3599 25.6334 18.4519 25.0995 18.578C25.1909 18.4479 25.3031 18.3299 25.4319 18.2279C25.8058 17.9278 26.2794 17.7858 26.7634 17.8298L26.8651 16.7555C26.0841 16.6855 25.3176 16.9136 24.7132 17.3997C24.1981 17.8118 23.8532 18.3659 23.7182 18.9861C23.228 19.1601 22.7482 19.3622 22.2829 19.5922V17.2096C23.7016 16.6715 25.0123 15.9113 26.1734 14.947C26.5203 14.661 26.8464 14.3589 27.158 14.0448C27.6482 14.1568 28.1447 14.2149 28.6494 14.2149C28.7948 14.2149 28.9423 14.2109 29.0919 14.2009L29.015 13.1226C28.6785 13.1446 28.342 13.1366 28.0117 13.0966C28.2735 12.7765 28.5186 12.4464 28.745 12.1043C27.9889 12.3084 27.345 12.5604 26.7966 12.8145C26.4414 13.2166 26.0571 13.5987 25.6417 13.9568C25.596 13.8067 25.5544 13.6587 25.5191 13.5067C25.1722 13.7227 24.8461 13.9508 24.5429 14.1888C24.5948 14.3569 24.6488 14.5249 24.709 14.689C24.1108 15.1151 23.4773 15.4872 22.8105 15.8013C22.231 16.4274 21.6992 17.0736 21.1571 17.7078V17.9718C21.1135 17.9358 21.0678 17.8998 21.0221 17.8658C20.7832 18.1419 20.5402 18.4159 20.2888 18.686C20.3574 18.736 20.4218 18.79 20.4862 18.844C20.3138 18.9081 20.1413 18.9661 19.9689 19.0181C19.4767 19.5162 18.9449 19.9923 18.3342 20.4245C19.298 20.3504 20.2494 20.1224 21.1571 19.7483V22.539H16.7203V26.0339C16.0971 26.246 15.6484 26.8161 15.6484 27.4863C15.6484 28.3365 16.3651 29.0267 17.2499 29.0267C18.1327 29.0267 18.8494 28.3365 18.8494 27.4863C18.8494 26.8381 18.4298 26.282 17.8419 26.0559V23.6173H21.1654V27.1182C20.5485 27.3322 20.106 27.9004 20.106 28.5686C20.106 29.4188 20.8227 30.109 21.7055 30.109C22.5903 30.109 23.307 29.4188 23.307 28.5686C23.307 27.9164 22.8832 27.3602 22.2891 27.1342V23.6173H25.6126V26.0559C25.0227 26.284 24.6031 26.8381 24.6031 27.4863C24.6031 28.3365 25.3197 29.0267 26.2046 29.0267C27.0874 29.0267 27.804 28.3365 27.804 27.4863C27.804 26.8161 27.3554 26.244 26.7343 26.0339V22.539H22.2871V20.8246C25.299 19.1441 28.9132 18.8821 32.11 19.9783C32.2159 20.3284 32.5503 20.5825 32.945 20.5825C33.429 20.5825 33.8195 20.2064 33.8195 19.7403C33.8195 19.2762 33.429 18.9001 32.945 18.9001C32.8121 18.9001 32.6854 18.9281 32.5732 18.9801C31.3705 18.554 30.1034 18.3019 28.8011 18.2419C29.283 17.8778 29.7358 17.4837 30.1637 17.0656C30.4337 17.0976 30.7079 17.1176 30.9821 17.1176ZM18.2677 27.4823C18.2677 28.0244 17.8108 28.4645 17.2479 28.4645C16.6849 28.4645 16.228 28.0224 16.228 27.4823C16.228 26.9401 16.6849 26.5 17.2479 26.5C17.8108 26.5 18.2677 26.9421 18.2677 27.4823ZM22.7233 28.5666C22.7233 29.1087 22.2663 29.5488 21.7034 29.5488C21.1405 29.5488 20.6835 29.1067 20.6835 28.5666C20.6835 28.0704 21.0657 27.6623 21.5601 27.5943H21.8446C22.3411 27.6603 22.7233 28.0704 22.7233 28.5666ZM27.2203 27.4823C27.2203 28.0244 26.7634 28.4645 26.2004 28.4645C25.6375 28.4645 25.1806 28.0224 25.1806 27.4823C25.1806 26.9401 25.6375 26.5 26.2004 26.5C26.7634 26.5 27.2203 26.9421 27.2203 27.4823Z" fill="#00783F"/>
<path d="M58.0611 13.319L53.6554 23.5096C52.9097 25.2361 51.1566 26.3624 49.2144 26.3624C48.7138 26.3624 48.3815 25.8622 48.5913 25.4241L58.2065 5.41497C58.5804 4.63877 59.7249 4.63477 60.105 5.40897L71.787 29.2851C71.9822 29.6832 71.681 30.1413 71.2241 30.1413H71.0454C69.1303 30.1413 67.4 29.0491 66.6356 27.3586L60.2815 13.303C59.8557 12.3628 58.4703 12.3728 58.0611 13.319Z" fill="#BF9000"/>
<path d="M79.512 15.6675C79.19 15.4194 78.8888 15.2334 78.6105 15.1094C78.3321 14.9853 77.9769 14.9233 77.549 14.9233C76.6912 14.9233 76.068 15.2394 75.6817 15.8696C75.2953 16.4997 75.1021 17.3219 75.1021 18.3342V26.3623H71.6582V12.1026H75.1021V13.807C75.5529 13.1869 76.0722 12.6907 76.6642 12.3186C77.2541 11.9465 77.8606 11.7605 78.4817 11.7605C79.0176 11.7605 79.5224 11.8485 79.9939 12.0246C80.4654 12.2006 80.8725 12.4747 81.2173 12.8468L79.512 15.6675Z" fill="#BF9000"/>
<path d="M97.7143 19.2325C97.7143 20.8029 97.382 22.1412 96.7173 23.2475C96.0526 24.3538 95.1719 25.2 94.0772 25.7902C92.9825 26.3783 91.7923 26.6744 90.5045 26.6744C89.4098 26.6744 88.4335 26.4423 87.5757 25.9762C86.7178 25.5121 86.0095 24.8439 85.4507 23.9777V26.3643H81.9424V2.18408H85.4507V14.4893C86.0074 13.621 86.7157 12.9549 87.5757 12.4907C88.4335 12.0266 89.4098 11.7926 90.5045 11.7926C91.7923 11.7926 92.9825 12.0866 94.0772 12.6768C95.1719 13.2649 96.0505 14.1132 96.7173 15.2194C97.382 16.3237 97.7143 17.6621 97.7143 19.2325ZM94.1084 19.2325C94.1084 17.8061 93.668 16.6958 92.7893 15.8996C91.9086 15.1034 90.868 14.7073 89.6674 14.7073C88.9798 14.7073 88.3151 14.8834 87.6712 15.2334C87.0273 15.5855 86.4955 16.0957 86.078 16.7678C85.6605 17.44 85.4507 18.2602 85.4507 19.2325C85.4507 20.2047 85.6605 21.0249 86.078 21.6971C86.4955 22.3693 87.0273 22.8814 87.6712 23.2315C88.3151 23.5836 88.9798 23.7576 89.6674 23.7576C90.868 23.7576 91.9086 23.3595 92.7893 22.5633C93.6701 21.7691 94.1084 20.6568 94.1084 19.2325Z" fill="#BF9000"/>
<path d="M99.0869 19.2324C99.0869 17.766 99.4359 16.4737 100.134 15.3574C100.832 14.2411 101.781 13.3689 102.982 12.7387C104.182 12.1086 105.545 11.7925 107.069 11.7925C108.571 11.7925 109.928 12.1086 111.141 12.7387C112.352 13.3689 113.307 14.2431 114.005 15.3574C114.703 16.4737 115.052 17.766 115.052 19.2324C115.052 20.7008 114.703 21.9911 114.005 23.1074C113.307 24.2237 112.352 25.0959 111.141 25.7261C109.928 26.3562 108.571 26.6723 107.069 26.6723C105.545 26.6723 104.184 26.3582 102.982 25.7261C101.779 25.0959 100.83 24.2217 100.134 23.1074C99.4359 21.9911 99.0869 20.6988 99.0869 19.2324ZM102.66 19.2324C102.66 20.5547 103.083 21.635 103.931 22.4712C104.778 23.3074 105.825 23.7276 107.069 23.7276C108.314 23.7276 109.361 23.3095 110.208 22.4712C111.056 21.635 111.479 20.5547 111.479 19.2324C111.479 17.8901 111.056 16.8038 110.208 15.9776C109.361 15.1513 108.314 14.7372 107.069 14.7372C105.825 14.7372 104.778 15.1513 103.931 15.9776C103.083 16.8038 102.66 17.8881 102.66 19.2324Z" fill="#BF9000"/>
<path d="M124.591 15.6675C124.269 15.4194 123.968 15.2334 123.69 15.1094C123.411 14.9853 123.056 14.9233 122.628 14.9233C121.77 14.9233 121.147 15.2394 120.761 15.8696C120.374 16.4997 120.181 17.3219 120.181 18.3342V26.3623H116.737V12.1026H120.181V13.807C120.632 13.1869 121.151 12.6907 121.741 12.3186C122.331 11.9465 122.938 11.7605 123.561 11.7605C124.097 11.7605 124.601 11.8485 125.073 12.0246C125.544 12.2006 125.952 12.4747 126.296 12.8468L124.591 15.6675Z" fill="#BF9000"/>
<path d="M144.677 12.1026H148.474L151.918 20.5968L156.037 11.0183L160.349 20.6268L163.824 12.1026H167.625L160.706 27.3525L156.039 17.744L151.598 27.3525L144.677 12.1026Z" fill="#00783F"/>
<path d="M170.404 15.8215L168.987 13.4649C169.675 13.0728 170.543 12.6907 171.594 12.3186C172.645 11.9465 173.868 11.7605 175.262 11.7605C177.065 11.7605 178.55 12.1486 179.72 12.9228C180.889 13.697 181.475 14.7873 181.475 16.1936V26.3603H178.064V24.4078C177.593 25.172 176.895 25.7401 175.973 26.1122C175.05 26.4843 174.116 26.6703 173.173 26.6703C172.228 26.6703 171.366 26.4943 170.582 26.1442C169.799 25.7941 169.172 25.276 168.7 24.5938C168.229 23.9116 167.992 23.0854 167.992 22.1132C167.992 20.7288 168.497 19.6285 169.504 18.8123C170.512 17.9961 171.939 17.588 173.785 17.588C174.751 17.588 175.588 17.692 176.297 17.8981C177.005 18.1041 177.595 18.3322 178.066 18.5803V16.8438C178.066 15.9756 177.771 15.3674 177.182 15.0153C176.592 14.6632 175.836 14.4892 174.913 14.4892C173.862 14.4892 172.928 14.6552 172.113 14.9853C171.295 15.3154 170.726 15.5955 170.404 15.8215ZM171.498 21.9291C171.498 22.6533 171.756 23.2054 172.271 23.5875C172.786 23.9696 173.451 24.1617 174.267 24.1617C175.298 24.1617 176.187 23.8576 176.939 23.2475C177.688 22.6373 178.064 21.7851 178.064 20.6908V20.4747C177.034 20.0206 175.885 19.7926 174.62 19.7926C173.526 19.7926 172.732 19.9846 172.238 20.3667C171.744 20.7448 171.498 21.2669 171.498 21.9291Z" fill="#00783F"/>
<path d="M187.735 33.18H184.227V12.1025H187.735V14.4892C188.271 13.6009 188.969 12.9128 189.827 12.4286C190.684 11.9425 191.671 11.7004 192.789 11.7004C194.076 11.7004 195.267 12.0005 196.361 12.5987C197.456 13.1988 198.335 14.055 199.001 15.1713C199.666 16.2876 199.998 17.642 199.998 19.2324C199.998 20.8248 199.666 22.1771 199.001 23.2934C198.337 24.4097 197.456 25.2619 196.361 25.8501C195.267 26.4382 194.076 26.7343 192.789 26.7343C191.673 26.7343 190.687 26.4963 189.827 26.0221C188.969 25.546 188.271 24.8658 187.735 23.9756V33.18ZM196.393 19.2324C196.393 17.806 195.952 16.7057 195.074 15.9315C194.193 15.1573 193.152 14.7692 191.952 14.7692C191.264 14.7692 190.599 14.9393 189.955 15.2814C189.311 15.6214 188.78 16.1236 188.362 16.7858C187.945 17.4479 187.735 18.2641 187.735 19.2344C187.735 20.2066 187.945 21.0228 188.362 21.683C188.78 22.3452 189.311 22.8453 189.955 23.1854C190.599 23.5255 191.264 23.6975 191.952 23.6975C193.152 23.6975 194.193 23.3094 195.074 22.5352C195.954 21.757 196.393 20.6567 196.393 19.2324Z" fill="#00783F"/>
<path d="M143.361 12.4927L138.072 10.7622C137.819 10.6782 137.752 10.3621 137.954 10.1941L138.743 9.52791V9.4979C138.022 8.88575 137.092 8.57767 135.949 8.57767C134.898 8.57767 134.126 8.80773 133.633 9.27385C133.137 9.73997 132.894 10.2801 132.894 10.9023C132.894 11.7485 133.289 12.4727 134.084 13.0708C134.323 13.2509 134.605 13.4289 134.936 13.609C136.396 14.8713 139.061 17.496 139.636 20.7688C139.674 20.9849 139.697 21.1849 139.705 21.369C139.661 20.7168 139.468 20.1767 139.119 19.7525C138.722 19.2664 138.157 18.8543 137.428 18.5122C136.699 18.1701 135.862 17.8361 134.919 17.506C134.36 17.3199 133.737 17.0699 133.05 16.7618C132.364 16.4517 131.71 16.0496 131.089 15.5515C130.466 15.0553 129.951 14.4492 129.541 13.737C129.134 13.0248 128.931 12.1606 128.931 11.1483C128.931 9.99203 129.242 8.97377 129.863 8.09354C130.486 7.21732 131.33 6.52914 132.389 6.03301C133.453 5.53888 134.659 5.28882 136.01 5.28882C137.341 5.28882 138.5 5.52088 139.487 5.987C140.224 6.33309 140.874 6.74719 141.439 7.22732C141.446 7.23332 141.456 7.23332 141.462 7.22732L142.154 6.64517C142.355 6.47512 142.673 6.57915 142.725 6.83322L143.814 12.1086C143.868 12.3626 143.614 12.5747 143.361 12.4927Z" fill="#00783F"/>
<path d="M144.123 20.929C144.123 22.2753 143.764 23.4316 143.045 24.4019C142.324 25.3721 141.398 26.1163 140.259 26.6345C139.121 27.1506 137.912 27.4087 136.624 27.4087C135.293 27.4087 134.07 27.1566 132.954 26.6485C131.837 26.1443 130.856 25.4662 130.007 24.6179C129.591 24.2038 129.219 23.7717 128.889 23.3216C128.295 22.5134 128.553 21.3751 129.464 20.873C130.254 20.4369 131.261 20.7149 131.805 21.4191C132.275 22.0293 132.782 22.5534 133.32 22.9915C133.893 23.4556 134.529 23.7757 135.229 23.9518C135.26 23.9598 135.289 23.9678 135.318 23.9738C135.683 24.0718 136.072 24.1298 136.487 24.1318C136.965 24.1378 137.856 24.1398 138.631 23.6677C138.639 23.6677 138.646 23.6617 138.654 23.6537C138.83 23.5557 138.994 23.4436 139.146 23.3156C139.778 22.7775 140.093 22.0753 140.093 21.2071V21.173C140.093 21.093 140.091 21.007 140.085 20.917C140.077 20.7329 140.054 20.5349 140.016 20.3168C139.441 17.044 136.776 14.4193 135.316 13.157C136.089 13.5751 137.11 13.9972 138.39 14.4173C139.292 14.7054 140.183 15.1195 141.063 15.6576C141.942 16.1958 142.671 16.8919 143.253 17.7502C143.836 18.6104 144.123 19.6687 144.123 20.929Z" fill="#BF9000"/>
<path d="M82.7725 35.598V41.5315H83.7923V35.598H82.7725ZM83.3774 36.4796H84.596C84.9475 36.4796 85.2298 36.5615 85.443 36.7254C85.6562 36.8836 85.7628 37.121 85.7628 37.4374C85.7628 37.7539 85.6562 37.994 85.443 38.1579C85.2298 38.3218 84.9475 38.4037 84.596 38.4037H83.3774V39.2853H84.596C85.0397 39.2853 85.4228 39.2118 85.7455 39.0649C86.0681 38.9123 86.3188 38.6976 86.4974 38.4207C86.6818 38.1438 86.7739 37.816 86.7739 37.4374C86.7739 37.0588 86.6818 36.7339 86.4974 36.4626C86.3188 36.1857 86.0681 35.9738 85.7455 35.8269C85.4228 35.6743 85.0397 35.598 84.596 35.598H83.3774V36.4796Z" fill="#C89211"/>
<path d="M87.127 39.582C87.127 39.9775 87.2192 40.3307 87.4036 40.6415C87.5937 40.9467 87.8501 41.1868 88.1728 41.362C88.5012 41.5315 88.867 41.6163 89.2704 41.6163C89.6794 41.6163 90.0453 41.5315 90.368 41.362C90.6906 41.1868 90.9441 40.9467 91.1285 40.6415C91.3186 40.3307 91.4137 39.9775 91.4137 39.582C91.4137 39.1807 91.3186 38.8276 91.1285 38.5224C90.9441 38.2173 90.6906 37.9799 90.368 37.8104C90.0453 37.6352 89.6794 37.5476 89.2704 37.5476C88.867 37.5476 88.5012 37.6352 88.1728 37.8104C87.8501 37.9799 87.5937 38.2173 87.4036 38.5224C87.2192 38.8276 87.127 39.1807 87.127 39.582ZM88.0863 39.582C88.0863 39.339 88.1382 39.1242 88.2419 38.9378C88.3456 38.7513 88.4868 38.6072 88.6654 38.5055C88.844 38.4037 89.0457 38.3529 89.2704 38.3529C89.4951 38.3529 89.6967 38.4037 89.8753 38.5055C90.0539 38.6072 90.1951 38.7513 90.2988 38.9378C90.4025 39.1242 90.4544 39.339 90.4544 39.582C90.4544 39.825 90.4025 40.0397 90.2988 40.2262C90.1951 40.407 90.0539 40.5511 89.8753 40.6585C89.6967 40.7602 89.4951 40.811 89.2704 40.811C89.0457 40.811 88.844 40.7602 88.6654 40.6585C88.4868 40.5511 88.3456 40.407 88.2419 40.2262C88.1382 40.0397 88.0863 39.825 88.0863 39.582Z" fill="#C89211"/>
<path d="M91.5849 37.6324L93.443 41.8028L94.6357 39.1751L95.8888 41.8028L97.747 37.6324H96.7272L95.7938 39.9634L94.6357 37.3357L93.5294 39.9464L92.6047 37.6324H91.5849Z" fill="#C89211"/>
<path d="M99.9443 41.6163C100.405 41.6163 100.8 41.5287 101.128 41.3535C101.457 41.1727 101.728 40.9071 101.941 40.5568L101.128 40.2431C101.007 40.4522 100.852 40.6076 100.662 40.7093C100.471 40.811 100.247 40.8619 99.9875 40.8619C99.7455 40.8619 99.541 40.811 99.3739 40.7093C99.2068 40.6076 99.0771 40.4579 98.985 40.2601C98.8985 40.0623 98.8582 39.825 98.864 39.5481C98.864 39.2655 98.9072 39.0282 98.9936 38.836C99.0858 38.6439 99.2125 38.497 99.3739 38.3953C99.541 38.2935 99.7426 38.2427 99.9788 38.2427C100.175 38.2427 100.345 38.2851 100.489 38.3698C100.639 38.4546 100.754 38.5733 100.834 38.7258C100.921 38.8784 100.964 39.0592 100.964 39.2683C100.964 39.3079 100.953 39.3559 100.93 39.4124C100.912 39.4689 100.895 39.5142 100.878 39.5481L101.163 39.1581H98.475V39.7939H101.967C101.967 39.7713 101.967 39.7345 101.967 39.6837C101.972 39.6328 101.975 39.5848 101.975 39.5396C101.975 39.1214 101.897 38.7654 101.742 38.4715C101.586 38.172 101.359 37.9432 101.059 37.785C100.765 37.6267 100.408 37.5476 99.9875 37.5476C99.5669 37.5476 99.201 37.6324 98.8899 37.8019C98.5788 37.9658 98.3368 38.2003 98.1639 38.5055C97.9968 38.8106 97.9133 39.1694 97.9133 39.582C97.9133 39.9888 97.9968 40.3448 98.1639 40.65C98.331 40.9551 98.5672 41.1925 98.8726 41.362C99.1837 41.5315 99.541 41.6163 99.9443 41.6163Z" fill="#C89211"/>
<path d="M103.799 37.6324H102.875V41.5315H103.799V37.6324ZM104.983 38.6072L105.441 37.8358C105.349 37.7284 105.24 37.6522 105.113 37.607C104.986 37.5617 104.851 37.5391 104.707 37.5391C104.505 37.5391 104.309 37.6126 104.119 37.7595C103.935 37.9008 103.782 38.0929 103.661 38.3359C103.546 38.5733 103.488 38.8473 103.488 39.1581L103.799 39.3361C103.799 39.1497 103.82 38.9886 103.86 38.853C103.906 38.7117 103.978 38.6015 104.076 38.5224C104.174 38.4433 104.301 38.4037 104.456 38.4037C104.571 38.4037 104.667 38.4207 104.741 38.4546C104.822 38.4885 104.903 38.5394 104.983 38.6072Z" fill="#C89211"/>
<path d="M107.684 41.6163C108.145 41.6163 108.539 41.5287 108.868 41.3535C109.196 41.1727 109.467 40.9071 109.68 40.5568L108.868 40.2431C108.747 40.4522 108.591 40.6076 108.401 40.7093C108.211 40.811 107.986 40.8619 107.727 40.8619C107.485 40.8619 107.28 40.811 107.113 40.7093C106.946 40.6076 106.817 40.4579 106.724 40.2601C106.638 40.0623 106.598 39.825 106.603 39.5481C106.603 39.2655 106.647 39.0282 106.733 38.836C106.825 38.6439 106.952 38.497 107.113 38.3953C107.28 38.2935 107.482 38.2427 107.718 38.2427C107.914 38.2427 108.084 38.2851 108.228 38.3698C108.378 38.4546 108.493 38.5733 108.574 38.7258C108.66 38.8784 108.704 39.0592 108.704 39.2683C108.704 39.3079 108.692 39.3559 108.669 39.4124C108.652 39.4689 108.634 39.5142 108.617 39.5481L108.902 39.1581H106.214V39.7939H109.706C109.706 39.7713 109.706 39.7345 109.706 39.6837C109.712 39.6328 109.715 39.5848 109.715 39.5396C109.715 39.1214 109.637 38.7654 109.481 38.4715C109.326 38.172 109.098 37.9432 108.799 37.785C108.505 37.6267 108.148 37.5476 107.727 37.5476C107.306 37.5476 106.94 37.6324 106.629 37.8019C106.318 37.9658 106.076 38.2003 105.903 38.5055C105.736 38.8106 105.653 39.1694 105.653 39.582C105.653 39.9888 105.736 40.3448 105.903 40.65C106.07 40.9551 106.307 41.1925 106.612 41.362C106.923 41.5315 107.28 41.6163 107.684 41.6163Z" fill="#C89211"/>
<path d="M113.604 34.9199V41.5315H114.546V34.9199H113.604ZM110.312 39.582C110.312 40.0058 110.401 40.3703 110.58 40.6754C110.758 40.9806 110.994 41.2151 111.288 41.379C111.588 41.5372 111.908 41.6163 112.248 41.6163C112.582 41.6163 112.873 41.5344 113.12 41.3705C113.374 41.2066 113.573 40.9721 113.717 40.6669C113.867 40.3618 113.941 40.0001 113.941 39.582C113.941 39.1581 113.867 38.7965 113.717 38.497C113.573 38.1918 113.374 37.9573 113.12 37.7934C112.873 37.6296 112.582 37.5476 112.248 37.5476C111.908 37.5476 111.588 37.6296 111.288 37.7934C110.994 37.9517 110.758 38.1834 110.58 38.4885C110.401 38.788 110.312 39.1525 110.312 39.582ZM111.28 39.582C111.28 39.322 111.334 39.0988 111.444 38.9123C111.553 38.7258 111.697 38.5846 111.876 38.4885C112.06 38.3924 112.259 38.3444 112.472 38.3444C112.657 38.3444 112.835 38.3924 113.008 38.4885C113.181 38.5846 113.322 38.7258 113.432 38.9123C113.547 39.0932 113.604 39.3164 113.604 39.582C113.604 39.8476 113.547 40.0736 113.432 40.2601C113.322 40.4409 113.181 40.5794 113.008 40.6754C112.835 40.7715 112.657 40.8195 112.472 40.8195C112.259 40.8195 112.06 40.7715 111.876 40.6754C111.697 40.5794 111.553 40.4381 111.444 40.2516C111.334 40.0651 111.28 39.8419 111.28 39.582Z" fill="#C89211"/>
<path d="M119.202 34.9199H118.26V41.5315H119.202V34.9199ZM122.495 39.582C122.495 39.1525 122.405 38.788 122.227 38.4885C122.048 38.1834 121.812 37.9517 121.518 37.7934C121.224 37.6296 120.904 37.5476 120.559 37.5476C120.23 37.5476 119.939 37.6296 119.686 37.7934C119.432 37.9573 119.231 38.1918 119.081 38.497C118.937 38.7965 118.865 39.1581 118.865 39.582C118.865 40.0001 118.937 40.3618 119.081 40.6669C119.231 40.9721 119.432 41.2066 119.686 41.3705C119.939 41.5344 120.23 41.6163 120.559 41.6163C120.904 41.6163 121.224 41.5372 121.518 41.379C121.812 41.2151 122.048 40.9806 122.227 40.6754C122.405 40.3703 122.495 40.0058 122.495 39.582ZM121.527 39.582C121.527 39.8419 121.472 40.0651 121.363 40.2516C121.253 40.4381 121.109 40.5794 120.93 40.6754C120.752 40.7715 120.553 40.8195 120.334 40.8195C120.15 40.8195 119.971 40.7715 119.798 40.6754C119.625 40.5794 119.481 40.4409 119.366 40.2601C119.257 40.0736 119.202 39.8476 119.202 39.582C119.202 39.3164 119.257 39.0932 119.366 38.9123C119.481 38.7258 119.625 38.5846 119.798 38.4885C119.971 38.3924 120.15 38.3444 120.334 38.3444C120.553 38.3444 120.752 38.3924 120.93 38.4885C121.109 38.5846 121.253 38.7258 121.363 38.9123C121.472 39.0988 121.527 39.322 121.527 39.582Z" fill="#C89211"/>
<path d="M126.775 37.6324H125.772L124.528 40.6924L124.968 40.7178L123.698 37.6324H122.626L124.234 41.0738L123.188 43.3964H124.182L126.775 37.6324Z" fill="#C89211"/>
<path d="M131.264 38.7004L133.183 41.5315H134.419L132.362 38.7004H131.264ZM130.011 35.598V41.5315H131.031V35.598H130.011ZM130.616 36.4626H131.835C132.071 36.4626 132.275 36.5022 132.448 36.5813C132.621 36.6604 132.756 36.7734 132.854 36.9204C132.952 37.0673 133.001 37.2481 133.001 37.4629C133.001 37.6719 132.952 37.8528 132.854 38.0053C132.756 38.1523 132.621 38.2653 132.448 38.3444C132.275 38.4179 132.071 38.4546 131.835 38.4546H130.616V39.2853H131.878C132.321 39.2853 132.705 39.209 133.027 39.0564C133.35 38.9038 133.6 38.6891 133.779 38.4122C133.963 38.1353 134.056 37.8104 134.056 37.4374C134.056 37.0645 133.963 36.7424 133.779 36.4711C133.6 36.1942 133.35 35.9795 133.027 35.8269C132.705 35.6743 132.321 35.598 131.878 35.598H130.616V36.4626Z" fill="#C89211"/>
<path d="M134.771 39.582C134.771 39.9775 134.863 40.3307 135.047 40.6415C135.237 40.9467 135.494 41.1868 135.816 41.362C136.145 41.5315 136.511 41.6163 136.914 41.6163C137.323 41.6163 137.689 41.5315 138.012 41.362C138.334 41.1868 138.588 40.9467 138.772 40.6415C138.962 40.3307 139.057 39.9775 139.057 39.582C139.057 39.1807 138.962 38.8276 138.772 38.5224C138.588 38.2173 138.334 37.9799 138.012 37.8104C137.689 37.6352 137.323 37.5476 136.914 37.5476C136.511 37.5476 136.145 37.6352 135.816 37.8104C135.494 37.9799 135.237 38.2173 135.047 38.5224C134.863 38.8276 134.771 39.1807 134.771 39.582ZM135.73 39.582C135.73 39.339 135.782 39.1242 135.886 38.9378C135.989 38.7513 136.13 38.6072 136.309 38.5055C136.488 38.4037 136.689 38.3529 136.914 38.3529C137.139 38.3529 137.34 38.4037 137.519 38.5055C137.698 38.6072 137.839 38.7513 137.942 38.9378C138.046 39.1242 138.098 39.339 138.098 39.582C138.098 39.825 138.046 40.0397 137.942 40.2262C137.839 40.407 137.698 40.5511 137.519 40.6585C137.34 40.7602 137.139 40.811 136.914 40.811C136.689 40.811 136.488 40.7602 136.309 40.6585C136.13 40.5511 135.989 40.407 135.886 40.2262C135.782 40.0397 135.73 39.825 135.73 39.582Z" fill="#C89211"/>
<path d="M140.859 34.9199H139.917V41.5315H140.859V34.9199ZM144.152 39.582C144.152 39.1525 144.062 38.788 143.884 38.4885C143.705 38.1834 143.469 37.9517 143.175 37.7934C142.881 37.6296 142.561 37.5476 142.216 37.5476C141.887 37.5476 141.596 37.6296 141.343 37.7934C141.089 37.9573 140.888 38.1918 140.738 38.497C140.594 38.7965 140.522 39.1581 140.522 39.582C140.522 40.0001 140.594 40.3618 140.738 40.6669C140.888 40.9721 141.089 41.2066 141.343 41.3705C141.596 41.5344 141.887 41.6163 142.216 41.6163C142.561 41.6163 142.881 41.5372 143.175 41.379C143.469 41.2151 143.705 40.9806 143.884 40.6754C144.062 40.3703 144.152 40.0058 144.152 39.582ZM143.184 39.582C143.184 39.8419 143.129 40.0651 143.02 40.2516C142.91 40.4381 142.766 40.5794 142.587 40.6754C142.409 40.7715 142.21 40.8195 141.991 40.8195C141.807 40.8195 141.628 40.7715 141.455 40.6754C141.282 40.5794 141.138 40.4409 141.023 40.2601C140.914 40.0736 140.859 39.8476 140.859 39.582C140.859 39.3164 140.914 39.0932 141.023 38.9123C141.138 38.7258 141.282 38.5846 141.455 38.4885C141.628 38.3924 141.807 38.3444 141.991 38.3444C142.21 38.3444 142.409 38.3924 142.587 38.4885C142.766 38.5846 142.91 38.7258 143.02 38.9123C143.129 39.0988 143.184 39.322 143.184 39.582Z" fill="#C89211"/>
<path d="M146 40.0058V37.6324H145.041V40.1075C145.041 40.5709 145.159 40.9382 145.395 41.2094C145.637 41.4807 145.98 41.6163 146.424 41.6163C146.7 41.6163 146.936 41.5598 147.132 41.4468C147.334 41.3281 147.498 41.1558 147.625 40.9297V41.5315H148.558V37.6324H147.625V40.0058C147.625 40.181 147.587 40.3335 147.512 40.4635C147.438 40.5935 147.334 40.6952 147.201 40.7687C147.069 40.8421 146.916 40.8789 146.743 40.8789C146.49 40.8789 146.303 40.8026 146.182 40.65C146.061 40.4974 146 40.2827 146 40.0058Z" fill="#C89211"/>
<path d="M150.675 37.6324H149.75V41.5315H150.675V37.6324ZM151.859 38.6072L152.317 37.8358C152.225 37.7284 152.115 37.6522 151.989 37.607C151.862 37.5617 151.726 37.5391 151.582 37.5391C151.381 37.5391 151.185 37.6126 150.995 37.7595C150.81 37.9008 150.658 38.0929 150.537 38.3359C150.421 38.5733 150.364 38.8473 150.364 39.1581L150.675 39.3361C150.675 39.1497 150.695 38.9886 150.735 38.853C150.782 38.7117 150.854 38.6015 150.952 38.5224C151.049 38.4433 151.176 38.4037 151.332 38.4037C151.447 38.4037 151.542 38.4207 151.617 38.4546C151.698 38.4885 151.778 38.5394 151.859 38.6072Z" fill="#C89211"/>
<path d="M155.516 39.1581V41.5315H156.475V39.0479C156.475 38.5846 156.357 38.2201 156.121 37.9545C155.884 37.6832 155.542 37.5476 155.092 37.5476C154.821 37.5476 154.585 37.6041 154.383 37.7171C154.188 37.8302 154.026 38.0025 153.899 38.2342V37.6324H152.957V41.5315H153.899V39.1581C153.899 38.983 153.934 38.8304 154.003 38.7004C154.078 38.5648 154.182 38.4631 154.314 38.3953C154.447 38.3218 154.602 38.2851 154.781 38.2851C155.029 38.2851 155.213 38.3585 155.334 38.5055C155.455 38.6524 155.516 38.8699 155.516 39.1581Z" fill="#C89211"/>
<path d="M158.255 40.3194C158.255 40.1951 158.283 40.0905 158.341 40.0058C158.404 39.921 158.497 39.856 158.618 39.8108C158.739 39.76 158.897 39.7345 159.093 39.7345C159.318 39.7345 159.531 39.7628 159.732 39.8193C159.934 39.8758 160.124 39.9662 160.303 40.0905V39.6243C160.251 39.5622 160.162 39.4944 160.035 39.4209C159.908 39.3418 159.747 39.274 159.551 39.2175C159.361 39.161 159.133 39.1327 158.868 39.1327C158.373 39.1327 157.99 39.2457 157.719 39.4718C157.448 39.6922 157.313 39.9917 157.313 40.3703C157.313 40.6359 157.376 40.8619 157.503 41.0484C157.629 41.2349 157.799 41.3761 158.013 41.4722C158.226 41.5683 158.456 41.6163 158.704 41.6163C158.934 41.6163 159.159 41.5768 159.378 41.4976C159.603 41.4129 159.787 41.2857 159.931 41.1162C160.081 40.9467 160.156 40.7376 160.156 40.4889L160.018 39.9804C160.018 40.1781 159.972 40.3477 159.879 40.4889C159.787 40.6302 159.663 40.7404 159.508 40.8195C159.358 40.893 159.188 40.9297 158.998 40.9297C158.854 40.9297 158.724 40.9071 158.609 40.8619C158.499 40.8167 158.413 40.7489 158.35 40.6585C158.286 40.5624 158.255 40.4494 158.255 40.3194ZM157.961 38.6496C158.024 38.61 158.113 38.562 158.229 38.5055C158.344 38.4433 158.482 38.3924 158.643 38.3529C158.811 38.3077 158.986 38.2851 159.171 38.2851C159.292 38.2851 159.404 38.2964 159.508 38.319C159.611 38.3416 159.701 38.3783 159.776 38.4292C159.856 38.48 159.917 38.545 159.957 38.6241C159.997 38.7032 160.018 38.805 160.018 38.9293V41.5315H160.934V38.7513C160.934 38.4913 160.862 38.2709 160.718 38.0901C160.579 37.9093 160.384 37.7737 160.13 37.6832C159.876 37.5872 159.588 37.5391 159.266 37.5391C158.891 37.5391 158.563 37.59 158.281 37.6917C157.998 37.7934 157.765 37.898 157.58 38.0053L157.961 38.6496Z" fill="#C89211"/>
<path d="M164.691 35.598V41.5315H168.113V40.633H165.711V35.598H164.691Z" fill="#C89211"/>
<path d="M169.362 40.3194C169.362 40.1951 169.39 40.0905 169.448 40.0058C169.511 39.921 169.604 39.856 169.725 39.8108C169.846 39.76 170.004 39.7345 170.2 39.7345C170.425 39.7345 170.638 39.7628 170.839 39.8193C171.041 39.8758 171.231 39.9662 171.41 40.0905V39.6243C171.358 39.5622 171.269 39.4944 171.142 39.4209C171.015 39.3418 170.854 39.274 170.658 39.2175C170.468 39.161 170.24 39.1327 169.975 39.1327C169.48 39.1327 169.097 39.2457 168.826 39.4718C168.555 39.6922 168.42 39.9917 168.42 40.3703C168.42 40.6359 168.483 40.8619 168.61 41.0484C168.736 41.2349 168.906 41.3761 169.12 41.4722C169.333 41.5683 169.563 41.6163 169.811 41.6163C170.041 41.6163 170.266 41.5768 170.485 41.4976C170.71 41.4129 170.894 41.2857 171.038 41.1162C171.188 40.9467 171.263 40.7376 171.263 40.4889L171.125 39.9804C171.125 40.1781 171.079 40.3477 170.986 40.4889C170.894 40.6302 170.77 40.7404 170.615 40.8195C170.465 40.893 170.295 40.9297 170.105 40.9297C169.961 40.9297 169.831 40.9071 169.716 40.8619C169.606 40.8167 169.52 40.7489 169.457 40.6585C169.393 40.5624 169.362 40.4494 169.362 40.3194ZM169.068 38.6496C169.131 38.61 169.22 38.562 169.336 38.5055C169.451 38.4433 169.589 38.3924 169.75 38.3529C169.918 38.3077 170.093 38.2851 170.278 38.2851C170.399 38.2851 170.511 38.2964 170.615 38.319C170.718 38.3416 170.808 38.3783 170.883 38.4292C170.963 38.48 171.024 38.545 171.064 38.6241C171.104 38.7032 171.125 38.805 171.125 38.9293V41.5315H172.041V38.7513C172.041 38.4913 171.969 38.2709 171.825 38.0901C171.686 37.9093 171.491 37.7737 171.237 37.6832C170.983 37.5872 170.695 37.5391 170.373 37.5391C169.998 37.5391 169.67 37.59 169.388 37.6917C169.105 37.7934 168.872 37.898 168.687 38.0053L169.068 38.6496Z" fill="#C89211"/>
<path d="M174.036 34.9199H173.094V41.5315H174.036V34.9199ZM177.329 39.582C177.329 39.1525 177.24 38.788 177.061 38.4885C176.883 38.1834 176.646 37.9517 176.353 37.7934C176.059 37.6296 175.739 37.5476 175.393 37.5476C175.065 37.5476 174.774 37.6296 174.52 37.7934C174.267 37.9573 174.065 38.1918 173.915 38.497C173.771 38.7965 173.699 39.1581 173.699 39.582C173.699 40.0001 173.771 40.3618 173.915 40.6669C174.065 40.9721 174.267 41.2066 174.52 41.3705C174.774 41.5344 175.065 41.6163 175.393 41.6163C175.739 41.6163 176.059 41.5372 176.353 41.379C176.646 41.2151 176.883 40.9806 177.061 40.6754C177.24 40.3703 177.329 40.0058 177.329 39.582ZM176.361 39.582C176.361 39.8419 176.306 40.0651 176.197 40.2516C176.088 40.4381 175.943 40.5794 175.765 40.6754C175.586 40.7715 175.387 40.8195 175.169 40.8195C174.984 40.8195 174.806 40.7715 174.633 40.6754C174.46 40.5794 174.316 40.4409 174.201 40.2601C174.091 40.0736 174.036 39.8476 174.036 39.582C174.036 39.3164 174.091 39.0932 174.201 38.9123C174.316 38.7258 174.46 38.5846 174.633 38.4885C174.806 38.3924 174.984 38.3444 175.169 38.3444C175.387 38.3444 175.586 38.3924 175.765 38.4885C175.943 38.5846 176.088 38.7258 176.197 38.9123C176.306 39.0988 176.361 39.322 176.361 39.582Z" fill="#C89211"/>
<path d="M178.4 40.2431L177.855 40.7856C177.97 40.9325 178.114 41.0738 178.287 41.2094C178.46 41.3394 178.659 41.4468 178.884 41.5315C179.108 41.6107 179.359 41.6502 179.636 41.6502C180.068 41.6502 180.411 41.54 180.664 41.3196C180.923 41.0936 181.053 40.7969 181.053 40.4296C181.053 40.1923 180.998 40.0001 180.889 39.8532C180.779 39.7063 180.632 39.582 180.448 39.4802C180.264 39.3785 180.059 39.2853 179.834 39.2005C179.673 39.1384 179.526 39.079 179.394 39.0225C179.267 38.966 179.163 38.9038 179.082 38.836C179.008 38.7626 178.97 38.6806 178.97 38.5902C178.97 38.4829 179.013 38.4009 179.1 38.3444C179.186 38.2879 179.299 38.2596 179.437 38.2596C179.633 38.2596 179.823 38.3077 180.007 38.4037C180.192 38.4998 180.347 38.6241 180.474 38.7767L180.992 38.2342C180.883 38.1042 180.75 37.9884 180.595 37.8867C180.439 37.785 180.264 37.703 180.068 37.6409C179.878 37.5787 179.673 37.5476 179.454 37.5476C179.212 37.5476 178.985 37.5872 178.771 37.6663C178.564 37.7398 178.397 37.8556 178.27 38.0138C178.149 38.172 178.089 38.3698 178.089 38.6072C178.089 38.8389 178.143 39.031 178.253 39.1836C178.368 39.3361 178.512 39.4605 178.685 39.5565C178.864 39.6469 179.042 39.7261 179.221 39.7939C179.399 39.856 179.555 39.9182 179.687 39.9804C179.82 40.0369 179.924 40.1075 179.999 40.1923C180.073 40.2714 180.111 40.3674 180.111 40.4805C180.111 40.6104 180.062 40.7122 179.964 40.7856C179.872 40.8591 179.742 40.8958 179.575 40.8958C179.443 40.8958 179.31 40.8704 179.178 40.8195C179.045 40.7687 178.915 40.6952 178.789 40.5991C178.662 40.5031 178.532 40.3844 178.4 40.2431Z" fill="#C89211"/>
</svg>
