<svg width="42" height="40" viewBox="0 0 42 40" fill="none" xmlns="http://www.w3.org/2000/svg">
<path d="M33.5667 3.67017C42.2888 9.56769 43.9567 21.7648 37.4116 29.8049C31.0098 37.949 18.3307 39.5034 10.1924 32.8797C18.4263 38.6812 30.5278 37.1348 36.6763 29.2588C43.022 21.4668 41.4994 9.90777 33.5667 3.67017Z" fill="#C89211"/>
<path d="M2.40533 24.0755C-0.363533 16.0414 3.87181 6.58098 11.4535 2.45792C13.9606 1.05756 16.7876 0.209339 19.6167 0.0913086C16.933 0.945529 14.4446 2.10983 12.2469 3.64222C5.48369 8.24741 1.90681 16.1374 2.40533 24.0755Z" fill="#4A8B2C"/>
<path d="M37.8543 16.3055C38.0101 22.7772 33.7062 29.0288 27.4768 31.4714C17.712 35.5144 6.15674 29.5809 4.21251 19.5123C2.05434 9.52774 10.3609 -0.182765 20.9545 0.0292896C17.6435 0.0692999 14.3512 1.03955 11.6155 2.84402C2.91428 8.45146 1.67629 20.6006 9.1354 27.6884C19.7871 37.803 37.6009 30.6712 37.8543 16.3055Z" fill="#6BA43A"/>
<path d="M39.2236 13.3706C41.226 19.4201 39.5061 26.446 34.98 31.0772C22.0621 44.1625 -0.412864 33.9959 1.75777 16.0773C2.66342 8.80541 8.44625 2.42176 15.8389 0.705322C8.67682 2.76785 3.24918 9.00346 2.47855 16.1613C1.31534 26.2679 9.11302 35.3483 19.6505 36.0964C32.5414 36.9747 42.3934 25.3937 39.2236 13.3706Z" fill="#4A8B2C"/>
<path d="M41.4872 17.9999C41.8798 24.3535 38.3631 30.6232 32.7652 33.968C27.9108 36.9388 21.6544 37.587 16.2371 35.7405C4.62577 31.8035 -0.292957 18.5 6.24596 8.42744C9.71899 3.03605 16.2288 -0.352827 22.828 0.0292716C16.476 0.331349 10.5395 3.75223 7.39671 9.09361C1.321 19.3162 7.35933 32.3996 19.357 34.7962C30.5301 37.0408 40.9388 28.9007 41.4872 17.9999Z" fill="#00783F"/>
<path d="M37.6774 9.8418C40.8866 16.0594 39.7483 23.8874 34.8961 29.0267C24.0034 40.5917 4.13323 33.798 3.24836 18.208C2.90978 12.1804 6.07123 6.15285 11.3306 2.87401C12.0722 2.40389 12.8511 1.99778 13.6487 1.62769C12.0639 2.38188 10.5828 3.34013 9.28668 4.50043C3.29613 9.78779 1.76318 18.5881 5.66618 25.4538C11.4573 35.8745 26.469 37.621 34.6842 28.8427C39.5157 23.8314 40.7391 16.0134 37.6774 9.8418Z" fill="#6BA43A"/>
<path d="M33.5677 3.67017C39.7098 8.0853 42.5306 15.9973 40.5012 23.1212C35.9585 39.1053 13.7702 41.87 5.15201 27.5283C1.82231 21.9829 1.8057 14.813 5.14371 9.27361C5.61107 8.48541 6.1449 7.73922 6.71404 7.01903C5.58822 8.4674 4.66388 10.0598 4.0158 11.7583C0.981063 19.5543 3.91402 28.5746 11.0449 33.2838C21.734 40.4757 36.8309 35.1743 40.2271 23.0512C42.2959 16.0534 39.5582 8.10731 33.5677 3.67017Z" fill="#4A8B2C"/>
<path d="M41.0902 19.4203C41.4433 31.6354 29.3646 41.2319 16.9576 38.7733C-0.914299 35.2844 -5.53807 12.8846 9.66679 3.15006C13.011 1.05552 16.9971 -0.0587645 20.9541 0.0292582C18.9808 0.0792711 17.0158 0.377348 15.136 0.953497C4.34509 4.25635 -1.51045 15.5733 2.33231 25.8379C4.60681 32.0355 10.3917 36.8548 17.0947 38.1091C29.3999 40.5017 40.8679 31.4794 41.0902 19.4203Z" fill="#C89211"/>
<path d="M37.0087 9.34354C40.4734 15.4651 39.6488 23.3752 34.9876 28.7125C27.8339 37.2087 13.8753 37.1767 6.80255 28.5985C0.924166 21.7387 1.50577 11.258 8.15478 5.07644C9.42809 3.87013 10.8925 2.86187 12.467 2.05566C10.9008 2.87388 9.44678 3.89414 8.18594 5.10845C1.64287 11.3101 1.0488 21.6927 6.92302 28.5045C13.9542 36.9607 27.7778 37.0427 34.8921 28.6385C39.5304 23.3672 40.3966 15.4331 37.0087 9.34354Z" fill="#C89211"/>
<path d="M33.9842 28.0063C34.5337 28.0063 34.9792 27.5773 34.9792 27.0481C34.9792 26.5189 34.5337 26.0898 33.9842 26.0898C33.4347 26.0898 32.9893 26.5189 32.9893 27.0481C32.9893 27.5773 33.4347 28.0063 33.9842 28.0063Z" fill="#6BA43A"/>
<path d="M0.994963 10.1138C1.54447 10.1138 1.98993 9.68474 1.98993 9.15551C1.98993 8.62629 1.54447 8.19727 0.994963 8.19727C0.44546 8.19727 0 8.62629 0 9.15551C0 9.68474 0.44546 10.1138 0.994963 10.1138Z" fill="#C89211"/>
<path d="M14.2073 38.9572C14.8062 38.9572 15.2916 38.4897 15.2916 37.9129C15.2916 37.3362 14.8062 36.8687 14.2073 36.8687C13.6085 36.8687 13.123 37.3362 13.123 37.9129C13.123 38.4897 13.6085 38.9572 14.2073 38.9572Z" fill="#00783F"/>
<path d="M31.3696 9.98185C30.8856 9.98185 30.4951 10.358 30.4951 10.8241C30.4951 10.8521 30.4972 10.8821 30.4993 10.9081C30.3331 11.1962 30.1981 11.4982 30.0963 11.8103C30.5512 11.7363 31.0373 11.6783 31.5566 11.6443C31.9471 11.5643 32.2399 11.2262 32.2399 10.8241C32.2399 10.358 31.8494 9.98185 31.3696 9.98185ZM30.5928 9.13163C30.5928 8.66551 30.2022 8.28942 29.7183 8.28942C29.2364 8.28942 28.8459 8.66551 28.8459 9.13163C28.8459 9.24366 28.8687 9.35169 28.9102 9.44972C28.4055 10.67 27.6972 11.8083 26.8019 12.8146C27.3503 12.5605 27.9942 12.3105 28.7503 12.1044C29.2073 11.4222 29.5936 10.7 29.9135 9.95185C30.3019 9.86582 30.5928 9.53174 30.5928 9.13163ZM27.8467 7.0491C27.8467 6.58498 27.4562 6.20888 26.9723 6.20888C26.4903 6.20888 26.0998 6.58498 26.0998 7.0491C26.0998 7.14312 26.1165 7.23314 26.1455 7.31717C26.0541 7.4412 25.9461 7.55323 25.8215 7.65325C25.5972 7.8313 25.3396 7.95533 25.0633 8.01535C25.1547 7.69526 25.2295 7.36918 25.3001 7.0411C25.6055 6.91106 25.8194 6.61499 25.8194 6.2729C25.8194 5.80878 25.4289 5.43268 24.9449 5.43268C24.463 5.43268 24.0725 5.80878 24.0725 6.2729C24.0725 6.44694 24.1265 6.60498 24.22 6.73902C23.8793 8.41945 23.2292 10.0179 22.2882 11.4802V6.45094C22.471 6.2969 22.5874 6.07084 22.5874 5.81878C22.5874 5.35266 22.1968 4.97656 21.7129 4.97656C21.231 4.97656 20.8405 5.35266 20.8405 5.81878C20.8405 6.08285 20.9672 6.31891 21.1645 6.47295V13.6008C20.1446 12.9266 19.0645 12.3685 17.9366 11.9324C17.9324 11.5022 17.868 11.0841 17.7496 10.682C19.187 9.83782 20.0407 8.30142 19.9909 6.693C20.0989 6.55297 20.1633 6.38092 20.1633 6.19288C20.1633 5.72676 19.7728 5.35066 19.2909 5.35066C18.8069 5.35066 18.4164 5.72676 18.4164 6.19288C18.4164 6.51296 18.6013 6.78903 18.8713 6.93107C18.8381 8.02135 18.2627 9.04361 17.3217 9.66377C16.979 9.05561 16.5033 8.52548 15.9321 8.10537C15.9113 7.65725 15.5312 7.30116 15.0618 7.30116C14.5778 7.30116 14.1873 7.67726 14.1873 8.14338C14.1873 8.6075 14.5778 8.9836 15.0618 8.9836C15.1282 8.9836 15.1906 8.97759 15.2508 8.96359C16.0879 9.57575 16.657 10.5 16.7858 11.5343C15.5561 11.1582 14.2787 10.9201 12.9659 10.8221C12.8122 10.578 12.5359 10.412 12.2181 10.412C11.7342 10.412 11.3436 10.7881 11.3436 11.2522C11.3436 11.7183 11.7342 12.0944 12.2181 12.0944C12.4321 12.0944 12.6294 12.0184 12.781 11.8943C13.0864 11.9144 13.3897 11.9424 13.6888 11.9784C13.1882 12.5265 12.5256 12.8986 11.8048 13.0566C11.6448 12.8746 11.406 12.7586 11.138 12.7586C10.654 12.7586 10.2635 13.1347 10.2635 13.5988C10.2635 14.0629 10.654 14.441 11.138 14.441C11.3956 14.441 11.6261 14.331 11.7861 14.1609C13.0448 13.9569 14.2018 13.2627 14.933 12.1804C16.5324 12.5045 18.0612 13.0686 19.482 13.8569C18.8547 14.0089 18.2045 14.0889 17.544 14.0889V15.1692C18.6366 15.1692 19.7001 14.9831 20.7137 14.617C20.8654 14.7211 21.0149 14.8251 21.1624 14.9331V17.7078C21.7046 17.0737 22.2363 16.4275 22.8158 15.8014C22.6414 15.8854 22.4648 15.9654 22.2841 16.0394V13.3767C23.3268 12.0764 24.1348 10.65 24.6957 9.13964C25.3687 9.13163 26.0126 8.90558 26.5381 8.48547C26.7583 8.30742 26.9494 8.10337 27.1031 7.88131C27.5269 7.81529 27.8467 7.46921 27.8467 7.0491ZM25.6242 11.5343C25.6242 11.1061 25.2669 10.7621 24.8224 10.7621C24.3779 10.7621 24.0206 11.1061 24.0206 11.5343C24.0206 11.7223 24.0891 11.8943 24.2055 12.0284C24.2262 12.7646 24.3426 13.4888 24.5503 14.1889C24.8535 13.9529 25.1776 13.7228 25.5265 13.5068C25.4185 13.0566 25.3541 12.5985 25.3313 12.1324C25.5099 11.9904 25.6242 11.7743 25.6242 11.5343ZM18.4039 16.2815C17.9594 16.2815 17.6001 16.6256 17.6001 17.0537C17.6001 17.4818 17.9594 17.8259 18.4039 17.8259C18.5286 17.8259 18.647 17.7979 18.7529 17.7479C19.3034 18.0019 19.8206 18.314 20.2942 18.6841C20.5455 18.414 20.7885 18.142 21.0274 17.8639C20.4458 17.4078 19.8081 17.0277 19.1268 16.7256C19.0001 16.4635 18.7238 16.2815 18.4039 16.2815ZM16.2894 18.46C16.5615 18.27 16.7837 18.0179 16.9416 17.7198C17.195 17.2297 17.2386 16.6756 17.0579 16.1574L15.9944 16.4955C16.0775 16.7416 16.0567 17.0037 15.9363 17.2357C15.8615 17.3798 15.7514 17.5018 15.6205 17.5918C14.9538 16.4515 14.8333 15.0312 15.4336 13.7468L14.4095 13.3047C13.4914 15.2812 13.9256 17.5138 15.3256 19.0422C13.99 18.6581 12.7603 17.9399 11.7799 16.9316C11.7819 16.9096 11.784 16.8876 11.784 16.8656C11.784 16.8636 11.784 16.8636 11.784 16.8636C11.784 16.4635 11.4932 16.1294 11.1048 16.0454C11.0425 16.0334 10.9781 16.0254 10.9116 16.0254C10.8867 16.0254 10.8617 16.0274 10.8368 16.0294C10.3902 16.0654 10.0371 16.4255 10.0371 16.8656C10.0371 17.3317 10.4297 17.7078 10.9116 17.7078C10.9158 17.7078 10.9241 17.7078 10.9282 17.7058C10.949 17.7058 10.9718 17.7038 10.9905 17.7018C12.0665 18.8061 13.4291 19.6243 14.9766 20.0725C15.8449 20.3245 16.7318 20.4506 17.6125 20.4506C17.8556 20.4506 18.1007 20.4405 18.3437 20.4205C18.9544 19.9884 19.4861 19.5143 19.9784 19.0142C19.1995 19.2482 18.3998 19.3643 17.6084 19.3643C17.0974 19.1362 16.657 18.8261 16.2894 18.46Z" fill="#C89211"/>
<path d="M30.9821 17.1176C31.626 17.1176 32.2658 17.0136 32.8744 16.8135C33.0094 16.8955 33.1693 16.9456 33.3417 16.9456C33.8236 16.9456 34.2142 16.5695 34.2142 16.1053C34.2142 15.6392 33.8236 15.2631 33.3417 15.2631C32.9782 15.2631 32.6667 15.4772 32.5337 15.7833C32.0747 15.9373 31.5928 16.0253 31.1026 16.0373C31.5014 15.5552 31.867 15.0451 32.1951 14.5089C32.2554 14.4109 32.3135 14.3089 32.3717 14.2069C32.3904 14.2049 32.4091 14.2029 32.4278 14.2009C32.8391 14.1308 33.1506 13.7867 33.1506 13.3726C33.1506 12.9085 32.7581 12.5324 32.2762 12.5324C32.1765 12.5324 32.0768 12.5504 31.9854 12.5824C31.9417 12.5964 31.896 12.6144 31.8545 12.6384C31.5865 12.7805 31.4017 13.0566 31.4017 13.3746C31.4017 13.4207 31.4058 13.4667 31.4141 13.5107C31.4183 13.5367 31.4266 13.5647 31.4328 13.5907C31.3207 13.7907 31.2043 13.9888 31.0797 14.1828C30.8782 13.3426 30.9738 12.4524 31.356 11.6682H31.3684C31.4328 11.6682 31.4951 11.6622 31.5554 11.6482C31.0382 11.6822 30.5521 11.7402 30.0951 11.8142C29.7233 12.9445 29.7815 14.1828 30.2842 15.2851C29.3162 16.4834 28.1135 17.5117 26.7197 18.3019C26.1714 18.3599 25.6334 18.4519 25.0995 18.578C25.1909 18.4479 25.3031 18.3299 25.4319 18.2279C25.8058 17.9278 26.2794 17.7858 26.7634 17.8298L26.8651 16.7555C26.0841 16.6855 25.3176 16.9136 24.7132 17.3997C24.1981 17.8118 23.8532 18.3659 23.7182 18.9861C23.228 19.1601 22.7482 19.3622 22.2829 19.5922V17.2096C23.7016 16.6715 25.0123 15.9113 26.1734 14.947C26.5203 14.661 26.8464 14.3589 27.158 14.0448C27.6482 14.1568 28.1447 14.2149 28.6494 14.2149C28.7948 14.2149 28.9423 14.2109 29.0919 14.2009L29.015 13.1226C28.6785 13.1446 28.342 13.1366 28.0117 13.0966C28.2735 12.7765 28.5186 12.4464 28.745 12.1043C27.9889 12.3084 27.345 12.5604 26.7966 12.8145C26.4414 13.2166 26.0571 13.5987 25.6417 13.9568C25.596 13.8067 25.5544 13.6587 25.5191 13.5067C25.1722 13.7227 24.8461 13.9508 24.5429 14.1888C24.5948 14.3569 24.6488 14.5249 24.709 14.689C24.1108 15.1151 23.4773 15.4872 22.8105 15.8013C22.231 16.4274 21.6992 17.0736 21.1571 17.7078V17.9718C21.1135 17.9358 21.0678 17.8998 21.0221 17.8658C20.7832 18.1419 20.5402 18.4159 20.2888 18.686C20.3574 18.736 20.4218 18.79 20.4862 18.844C20.3138 18.9081 20.1413 18.9661 19.9689 19.0181C19.4767 19.5162 18.9449 19.9923 18.3342 20.4245C19.298 20.3504 20.2494 20.1224 21.1571 19.7483V22.539H16.7203V26.0339C16.0971 26.246 15.6484 26.8161 15.6484 27.4863C15.6484 28.3365 16.3651 29.0267 17.2499 29.0267C18.1327 29.0267 18.8494 28.3365 18.8494 27.4863C18.8494 26.8381 18.4298 26.282 17.8419 26.0559V23.6173H21.1654V27.1182C20.5485 27.3322 20.106 27.9004 20.106 28.5686C20.106 29.4188 20.8227 30.109 21.7055 30.109C22.5903 30.109 23.307 29.4188 23.307 28.5686C23.307 27.9164 22.8832 27.3602 22.2891 27.1342V23.6173H25.6126V26.0559C25.0227 26.284 24.6031 26.8381 24.6031 27.4863C24.6031 28.3365 25.3197 29.0267 26.2046 29.0267C27.0874 29.0267 27.804 28.3365 27.804 27.4863C27.804 26.8161 27.3554 26.244 26.7343 26.0339V22.539H22.2871V20.8246C25.299 19.1441 28.9132 18.8821 32.11 19.9783C32.2159 20.3284 32.5503 20.5825 32.945 20.5825C33.429 20.5825 33.8195 20.2064 33.8195 19.7403C33.8195 19.2762 33.429 18.9001 32.945 18.9001C32.8121 18.9001 32.6854 18.9281 32.5732 18.9801C31.3705 18.554 30.1034 18.3019 28.8011 18.2419C29.283 17.8778 29.7358 17.4837 30.1637 17.0656C30.4337 17.0976 30.7079 17.1176 30.9821 17.1176ZM18.2677 27.4823C18.2677 28.0244 17.8108 28.4645 17.2479 28.4645C16.6849 28.4645 16.228 28.0224 16.228 27.4823C16.228 26.9401 16.6849 26.5 17.2479 26.5C17.8108 26.5 18.2677 26.9421 18.2677 27.4823ZM22.7233 28.5666C22.7233 29.1087 22.2663 29.5488 21.7034 29.5488C21.1405 29.5488 20.6835 29.1067 20.6835 28.5666C20.6835 28.0704 21.0657 27.6623 21.5601 27.5943H21.8446C22.3411 27.6603 22.7233 28.0704 22.7233 28.5666ZM27.2203 27.4823C27.2203 28.0244 26.7634 28.4645 26.2004 28.4645C25.6375 28.4645 25.1806 28.0224 25.1806 27.4823C25.1806 26.9401 25.6375 26.5 26.2004 26.5C26.7634 26.5 27.2203 26.9421 27.2203 27.4823Z" fill="#00783F"/>
</svg>
