<svg width="60" height="60" viewBox="0 0 60 60" fill="none" xmlns="http://www.w3.org/2000/svg">
<path fill-rule="evenodd" clip-rule="evenodd" d="M39.4582 8.81772C39.4582 15.2956 44.7173 20.547 51.2047 20.547C51.919 20.5435 52.6315 20.4749 53.3334 20.3421V43.5958C53.3334 53.3787 47.5627 59.1665 37.7655 59.1665H16.4269C6.60401 59.1665 0.833374 53.3787 0.833374 43.5958V22.2885C0.833374 12.5055 6.60401 6.6665 16.4269 6.6665H39.6634C39.5255 7.37527 39.4568 8.09571 39.4582 8.81772ZM33.3541 38.4482L41.6895 27.6921V27.6409C42.4031 26.682 42.221 25.3299 41.2791 24.5933C40.8233 24.2414 40.244 24.0891 39.6736 24.1711C39.1033 24.2532 38.5906 24.5626 38.2528 25.0287L31.2254 34.0689L23.2235 27.7689C22.7666 27.413 22.1854 27.2559 21.6112 27.333C21.0369 27.4101 20.5179 27.7149 20.1714 28.1787L11.5539 39.2933C11.251 39.6709 11.088 40.1413 11.0923 40.625C11.0423 41.6027 11.6597 42.4908 12.5945 42.7859C13.5293 43.081 14.5457 42.7087 15.0676 41.8799L22.2745 32.558L30.2765 38.8324C30.7316 39.1993 31.3166 39.3656 31.897 39.2932C32.4775 39.2207 33.0035 38.9157 33.3541 38.4482Z" fill="white"/>
<circle cx="51.875" cy="8.12492" r="7.29167" fill="#C89C34"/>
</svg>
