<svg width="44" height="52" viewBox="0 0 44 52" fill="none" xmlns="http://www.w3.org/2000/svg">
<path fill-rule="evenodd" clip-rule="evenodd" d="M18.2517 2.41397C12.2484 7.41672 8.77734 14.8275 8.77734 22.642V38.8345H35.1084V22.642C35.1084 14.8275 31.6373 7.41672 25.6341 2.41399L23.3476 0.508583C22.5338 -0.169527 21.352 -0.169527 20.5381 0.508581L18.2517 2.41397ZM21.9429 19.0862C24.3667 19.0862 26.3314 17.1214 26.3314 14.6977C26.3314 12.2739 24.3667 10.3091 21.9429 10.3091C19.5191 10.3091 17.5544 12.2739 17.5544 14.6977C17.5544 17.1214 19.5191 19.0862 21.9429 19.0862Z" fill="white"/>
<path opacity="0.48" d="M0 37.9177C0 34.4453 1.96193 31.2706 5.06781 29.7177L8.77702 27.8632V38.8344H0.916782C0.410457 38.8344 0 38.4239 0 37.9177Z" fill="white"/>
<path opacity="0.48" d="M43.8854 37.9177C43.8854 34.4453 41.9235 31.2706 38.8176 29.7177L35.1084 27.8632V38.8344H42.9687C43.4749 38.8344 43.8854 38.4239 43.8854 37.9177Z" fill="white"/>
<path opacity="0.48" d="M15.3594 43.2229H28.5249C28.5249 45.9646 27.1546 48.5249 24.8734 50.0457L21.9421 51.9999L19.0108 50.0457C16.7296 48.5249 15.3594 45.9646 15.3594 43.2229Z" fill="white"/>
<circle cx="21.9422" cy="14.6976" r="4.38851" fill="#C89C34"/>
</svg>
