<svg width="70" height="70" viewBox="0 0 70 70" fill="none" xmlns="http://www.w3.org/2000/svg">
<path d="M64.1667 26.8625V43.1375C64.1667 55.0958 60.5208 58.7416 48.5625 58.7416H28.9042V49.9333C28.9042 48.825 27.9708 47.8916 26.8625 47.8916V22.1083C27.9708 22.1083 28.9042 21.175 28.9042 20.0666V11.2583H48.5625C60.5208 11.2583 64.1667 14.9041 64.1667 26.8625Z" fill="white"/>
<path d="M53.8703 34.7084C54.3662 34.2417 54.5412 33.5126 54.337 32.8709C54.1328 32.2001 53.5787 31.7334 52.8787 31.6459L49.1453 31.0917C48.9995 31.0626 48.8828 30.9751 48.8245 30.8584L47.162 27.4751C46.8703 26.8626 46.2287 26.4834 45.5578 26.4834C44.8578 26.4834 44.2453 26.8626 43.9245 27.4751L42.262 30.8584C42.2037 31.0042 42.0578 31.0917 41.912 31.0917L38.1787 31.6459C37.5078 31.7334 36.9245 32.2292 36.7203 32.8709C36.5162 33.5417 36.6912 34.2417 37.187 34.7084L39.8995 37.3334C40.0162 37.4209 40.0453 37.5959 40.0162 37.7417L39.3745 41.4459C39.2578 42.1167 39.5203 42.8167 40.1037 43.1959C40.4245 43.4292 40.7745 43.5459 41.1537 43.5459C41.4453 43.5459 41.737 43.4876 41.9995 43.3417L45.3537 41.5917C45.4703 41.5334 45.6453 41.5334 45.762 41.5917L49.1162 43.3417C49.7287 43.6626 50.4578 43.6042 51.012 43.1959C51.5662 42.7876 51.8578 42.1167 51.7412 41.4167L51.0995 37.7126C51.0703 37.5667 51.1287 37.4209 51.2162 37.3042L53.8703 34.7084Z" fill="#C89211"/>
<path opacity="0.4" d="M26.8628 22.1083V47.8916C25.7545 47.8916 24.8211 48.825 24.8211 49.9333V58.7416H21.4378C9.91697 58.7416 6.1253 55.3 5.8628 44.5666C5.83364 44.0125 6.06697 43.4875 6.44614 43.1083C6.8253 42.7 7.37947 42.4958 7.90447 42.4958C11.9878 42.4958 15.342 39.1416 15.342 35.0291C15.342 30.9166 11.9878 27.5333 7.90447 27.5333C7.32114 27.5333 6.8253 27.3291 6.44614 26.9208C6.06697 26.5416 5.83364 25.9875 5.8628 25.4625C6.1253 14.7 9.91697 11.2583 21.4378 11.2583H24.8211V20.0666C24.8211 21.2041 25.7545 22.1083 26.8628 22.1083Z" fill="white"/>
</svg>
